<?xml version="1.0" encoding="utf-8"?>
<!-- Generator: Adobe Illustrator 20.1.0, SVG Export Plug-In . SVG Version: 6.00 Build 0)  -->
<svg version="1.1" id="Layer_1" xmlns="http://www.w3.org/2000/svg" xmlns:xlink="http://www.w3.org/1999/xlink" x="0px" y="0px"
	 viewBox="0 0 720 720" style="enable-background:new 0 0 720 720;" xml:space="preserve">
<style type="text/css">
	.st0{display:none;}
	.st1{display:inline;}
	.st2{fill:#FFFFFF;}
</style>
<g id="MB_and_P" class="st0">
	<g id="Mojito_Bar" class="st1">
		<path d="M188.4,483.6c2.3-0.1,2.5-2.5,2.5-3.7v-10.4c0-1.4-0.4-1.9-1.8-1.9h-0.6v-0.8h7.3l3,10.6l3-10.6h7.4v0.8h-0.7
			c-1.4,0-1.8,0.4-1.8,1.9v12.2c0,1.6,0.3,1.9,1.6,1.9h1v0.8h-9v-0.8h1.1c1.3,0,1.5-0.3,1.5-1.9v-13.6c0-0.3-0.1-0.4-0.2-0.4
			c-0.1,0-0.3,0.2-0.3,0.5l-4.5,16.2h-0.8l-4.5-16.2c-0.1-0.3-0.2-0.5-0.3-0.5c-0.1,0-0.2,0.2-0.2,0.5V480c0,2.2,0.9,3.6,2.4,3.6
			h0.3v0.8h-6V483.6z"/>
		<path d="M225.8,475.8c0,5.6-2.9,9.1-7.6,9.1c-4.7,0-7.6-3.5-7.6-9.1c0-6.3,3.5-9.4,7.6-9.3C223,466.7,225.8,470,225.8,475.8z
			 M215.4,476.9c0,4.3,0.3,7.2,2.7,7.2c2.2,0,2.9-1.7,2.9-7.2v-2.7c0-5.3-0.6-6.9-2.7-6.9c-2.1,0-2.9,1.7-2.9,6.8V476.9z"/>
		<path d="M237.1,479.5c0,3.3-2,5.4-5.1,5.4c-2.6,0-4.6-1.8-4.6-4.3c0-1.5,1-2.6,2.3-2.6c1.2,0,2,0.8,2,1.9c0,0.9-0.4,1.5-1.4,2
			c-0.6,0.3-0.8,0.5-0.8,0.9c0,0.6,1,1.3,1.9,1.3c1.1,0,1.7-0.8,1.7-2.4c0-0.3-0.1-1.5-0.1-1.7c0-2,0-3.9,0-5.9c0-4.9,0-5.1-0.2-5.7
			c-0.3-0.7-1-0.8-1.7-0.8h-0.7v-0.8h9v0.8h-0.5c-1.4,0-1.8,0.4-1.8,1.9V479.5z"/>
		<path d="M240.2,483.6h0.9c1.3,0,1.6-0.3,1.6-1.9v-12.2c0-1.4-0.4-1.9-1.8-1.9h-0.6v-0.8h9v0.8h-0.6c-1.4,0-1.8,0.4-1.8,1.9v12.2
			c0,1.7,0.2,1.9,1.4,1.9h1.1v0.8h-9V483.6z"/>
		<path d="M264.8,466.9v6.6H264c-0.4-2.3-1-5.9-3.5-5.9c-0.6,0-0.9,0.3-0.9,1v13c0,1.7,0.2,1.9,1.4,1.9h1.5v0.8h-10v-0.8h1.3
			c1.3,0,1.6-0.3,1.6-1.9v-13c0-0.7-0.3-1-1-1c-2.6,0-3.1,4-3.4,5.8h-0.8v-6.6H264.8z"/>
		<path d="M281.7,475.8c0,5.6-2.9,9.1-7.6,9.1c-4.7,0-7.6-3.5-7.6-9.1c0-6.3,3.5-9.4,7.6-9.3C279,466.7,281.7,470,281.7,475.8z
			 M271.3,476.9c0,4.3,0.3,7.2,2.7,7.2c2.2,0,2.9-1.7,2.9-7.2v-2.7c0-5.3-0.6-6.9-2.7-6.9c-2.1,0-2.9,1.7-2.9,6.8V476.9z"/>
		<path d="M288.8,483.6h1.1c1.3,0,1.6-0.3,1.6-1.9v-12.2c0-1.4-0.4-1.9-1.8-1.9h-0.9v-0.8h9.4c3.4,0,5.7,1.8,5.7,4.4
			c0,2.9-3.2,4-4.8,4c2.8,0,5.6,1.4,5.6,4.6c0,2.8-2.5,4.6-6.4,4.6h-9.6V483.6z M295.7,474.9h1.8c1.4,0,2-1.2,2-3.6
			c0-3.6-1.5-3.6-2.3-3.6c-1.3,0-1.6,0.3-1.6,1.5V474.9z M295.7,475.6v6.6c0,1.1,0.3,1.4,1.5,1.4c1.4,0,2.9-0.1,2.9-4
			c0-2.6-0.8-3.9-2.3-3.9H295.7z"/>
		<path d="M312.9,466.7h1.8l5.1,15c0.4,1.2,1.1,1.9,2,1.9h0.4v0.8h-8.2v-0.8h0.6c0.9,0,1.3-0.2,1.3-0.7c0-0.2,0-0.4-0.1-0.6l-1-3
			h-5.6c-0.4,1.1-0.6,1.6-0.6,2.2c0,1.3,0.9,2,2.7,2.1v0.8h-6.7v-0.8c0.7-0.1,2.3-0.3,3.3-3.2L312.9,466.7z M312.2,471.2l-2.5,6.9
			h4.8L312.2,471.2z"/>
		<path d="M323.4,483.6h0.9c1.3,0,1.6-0.3,1.6-1.9v-12.2c0-1.4-0.4-1.9-1.8-1.9h-0.7v-0.8h9.2c3.8,0,6.2,1.6,6.2,4.3
			c0,1.6-1,3-2.6,3.8c-1.1,0.5-2.6,0.7-3.8,0.8c3.7,0.8,5.4,2.5,5.7,5.6c0.1,1.3,0.4,1.9,1,1.9c0.6,0,1.1-0.9,1.1-2v-2.5h0.8v2.6
			c0,2-1.3,3.3-3.4,3.3c-2.1,0-3.4-1.3-3.6-3.6l-0.1-0.6c-0.3-3.1-1.2-4.5-2.9-4.5h-1v5.7c0,1.7,0.2,1.9,1.4,1.9h1.2v0.8h-9.2V483.6
			z M330,475.2h0.9c2.1,0,3.4-0.1,3.4-3.8c0-1.6-0.3-2.6-0.8-3.2c-0.3-0.3-0.6-0.5-1.4-0.5h-1c-0.6,0-1.1,0.4-1.1,1.1V475.2z"/>
	</g>
	<path id="Slash" class="st1" d="M347.6,481.3c0.4-1.1,1.4-2.4,2.6-3.5c0.6-0.6,1.1-1.3,1.7-1.9c0.8-0.9,1.7-1.7,2.6-2.5
		c0.5-0.5,1.1-1,1.6-1.5c1-1,2.1-2,3-3.1c1.2-1.3,2.4-2.7,3.4-4.3c0.9-1.3,2-2.5,3.2-3.4c0.2-0.2,0.5-0.3,0.8-0.5
		c0.6-0.3,1.2-0.3,1.7,0.1c1.5,1,2.9,2.1,4.4,3.1c0.4,0.3,0.5,0.8,0.6,1.3c0,0.9-0.3,1.7-0.7,2.4c-0.5,0.9-1,1.7-1.6,2.5
		c-0.7,0.9-1.5,1.8-2.3,2.6c-1.6,1.6-3.2,3-4.9,4.6c-0.6,0.5-1.2,1-1.7,1.6c-0.9,0.9-1.7,1.9-2.6,2.7c-1.3,1.2-2.5,2.4-3.8,3.6
		c-0.8,0.8-1.7,1.6-2.5,2.4c-0.6,0.6-1.3,1.2-1.9,1.8c-0.6,0.6-1.4,0.9-2.3,0.8c-0.6-0.1-1-0.4-1.1-0.9c-0.3-0.9-0.5-1.7-0.8-2.6
		C346.6,484.9,346.8,483.3,347.6,481.3z"/>
	<g id="Panciteria" class="st1">
		<path d="M386.7,476.5c0,1.5,0,3.9,0,5.4c0,1.5,0.2,1.7,1.4,1.7h1.3v0.8h-9.3v-0.8h0.9c1.3,0,1.6-0.3,1.6-1.9v-12.2
			c0-1.5-0.4-1.9-1.8-1.9h-0.7v-0.8h8.6c3.8,0,6.2,1.8,6.2,4.6c0,1.3-0.5,2.5-1.3,3.3c-1.2,1.1-3.1,1.7-6,1.7H386.7z M386.6,475.7
			h0.5c1.6,0,3.3,0,3.3-3.7c0-2-0.3-3.2-0.9-3.8c-0.4-0.4-0.9-0.5-1.8-0.5c-0.9,0-1.1,0.2-1.1,0.9V475.7z"/>
		<path d="M400.4,466.7h1.8l5.1,15c0.4,1.2,1.1,1.9,2,1.9h0.4v0.8h-8.2v-0.8h0.6c0.9,0,1.3-0.2,1.3-0.7c0-0.2,0-0.4-0.1-0.6l-1-3
			h-5.6c-0.4,1.1-0.6,1.6-0.6,2.2c0,1.3,0.9,2,2.7,2.1v0.8h-6.7v-0.8c0.7-0.1,2.3-0.3,3.3-3.2L400.4,466.7z M399.6,471.2l-2.5,6.9
			h4.8L399.6,471.2z"/>
		<path d="M410.7,483.6c2.3-0.4,2.6-2.2,2.7-4.1v-7.9c0-3.9-1.7-3.9-2.6-3.9v-0.8h5.4l7.6,12.6l-0.1-7.1c-0.1-3.8-1.4-4.5-3.1-4.8
			v-0.8h6.5v0.8c-1.9,0.4-2.7,1.5-2.7,3.9l0.1,13h-2l-8.4-13.9l0.1,8.4c0,2.1,0.8,3.5,2,4.1c0.4,0.2,0.6,0.2,1.2,0.3v0.8h-6.8V483.6
			z"/>
		<path d="M441.2,478c-0.2,4.1-2.6,6.9-5.9,6.9c-3.9,0-6.5-3.4-6.5-8.5c0-3,0.6-5.3,1.7-6.9c0.8-1.2,2.4-3,4.8-3
			c1.5,0,2.4,0.5,3.6,1.8c0.5-0.5,0.9-0.9,1.4-1.7h0.8v7.9h-0.8c-0.4-2.4-0.6-3.1-1.2-4.4c-0.5-1.1-1.8-2.6-3.2-2.6
			c-0.4,0-1,0.2-1.3,0.6c-0.7,0.7-1,2.5-1,5.8v4.5c0,2.9,0.3,4.3,1,5.1c0.4,0.4,1,0.7,1.6,0.7c2.2,0,4.1-2.6,4.2-5.9H441.2z"/>
		<path d="M442.4,483.6h0.9c1.3,0,1.6-0.3,1.6-1.9v-12.2c0-1.4-0.4-1.9-1.8-1.9h-0.6v-0.8h9v0.8h-0.6c-1.4,0-1.8,0.4-1.8,1.9v12.2
			c0,1.7,0.2,1.9,1.4,1.9h1.1v0.8h-9V483.6z"/>
		<path d="M466.9,466.9v6.6h-0.8c-0.4-2.3-1-5.9-3.5-5.9c-0.6,0-0.9,0.3-0.9,1v13c0,1.7,0.2,1.9,1.4,1.9h1.5v0.8h-10v-0.8h1.3
			c1.3,0,1.6-0.3,1.6-1.9v-13c0-0.7-0.3-1-1-1c-2.6,0-3.1,4-3.4,5.8h-0.8v-6.6H466.9z"/>
		<path d="M468.2,484.4v-0.8h1.3c1.3,0,1.6-0.3,1.6-1.9v-12.2c0-1.4-0.4-1.9-1.8-1.9h-1l0-0.8h15.4v6.4h-0.8c-0.4-1.8-1-3.1-2-4.1
			c-1.1-1.1-2.2-1.6-3.9-1.6c-1.4,0-1.7,0.3-1.7,1.4v6.1h0.4c0.4,0,1.3-0.3,1.8-0.6c1.3-0.9,1.4-2.4,1.5-3.3h0.8v8.9h-0.8
			c0-1.7-0.8-4.1-3.7-4.1v6.5c0,0.8,0.4,1.2,1.2,1.2h1.4c1.4,0,4.4-1.3,5.3-5.7h0.8v6.5H468.2z"/>
		<path d="M485.4,483.6h0.9c1.3,0,1.6-0.3,1.6-1.9v-12.2c0-1.4-0.4-1.9-1.8-1.9h-0.7v-0.8h9.2c3.8,0,6.2,1.6,6.2,4.3
			c0,1.6-1,3-2.6,3.8c-1.1,0.5-2.6,0.7-3.8,0.8c3.7,0.8,5.4,2.5,5.7,5.6c0.1,1.3,0.4,1.9,1,1.9c0.6,0,1.1-0.9,1.1-2v-2.5h0.8v2.6
			c0,2-1.3,3.3-3.4,3.3c-2.1,0-3.4-1.3-3.6-3.6l-0.1-0.6c-0.3-3.1-1.2-4.5-2.9-4.5h-1v5.7c0,1.7,0.2,1.9,1.4,1.9h1.2v0.8h-9.2V483.6
			z M492,475.2h0.9c2.1,0,3.4-0.1,3.4-3.8c0-1.6-0.3-2.6-0.8-3.2c-0.3-0.3-0.6-0.5-1.4-0.5h-1c-0.6,0-1.1,0.4-1.1,1.1V475.2z"/>
		<path d="M504,483.6h0.9c1.3,0,1.6-0.3,1.6-1.9v-12.2c0-1.4-0.4-1.9-1.8-1.9H504v-0.8h9v0.8h-0.6c-1.4,0-1.8,0.4-1.8,1.9v12.2
			c0,1.7,0.2,1.9,1.4,1.9h1.1v0.8h-9V483.6z"/>
		<path d="M522.3,466.7h1.8l5.1,15c0.4,1.2,1.1,1.9,2,1.9h0.4v0.8h-8.2v-0.8h0.6c0.9,0,1.3-0.2,1.3-0.7c0-0.2,0-0.4-0.1-0.6l-1-3
			h-5.6c-0.4,1.1-0.6,1.6-0.6,2.2c0,1.3,0.9,2,2.7,2.1v0.8h-6.7v-0.8c0.7-0.1,2.3-0.3,3.3-3.2L522.3,466.7z M521.5,471.2l-2.5,6.9
			h4.8L521.5,471.2z"/>
	</g>
</g>
<g id="Dolly_x27_s_Logo">
	<path class="st2" d="M172.8,326.6c0-1.6,0-2.9,0-4.3c0-0.8,0.8-1.1,1.5-1.3c1-0.3,1.2-0.8,1.1-1.8c0-0.3,0.3-0.8,0.6-1.1
		c1.1-0.8,2.4-1.5,3.4-2.3c0.2-0.2,0.2-1.2-0.1-1.6c-0.4-0.5-1.2-0.6-1.9-0.1c-1.5,1.1-3,2.3-4.6,3.5c0-0.1-0.1-0.4-0.2-0.6
		c0-0.4,0-0.7,0-1.1c0-1.2,0.2-1.5,1.5-1.8c0.3-0.1,0.6-0.3,0.7-0.5c0.9-1.8,2.1-3.1,3.8-4.2c0.5-0.3,1-0.8,1.2-1.3
		c0.3-0.8-1-1.8-1.7-1.3c-1.3,0.8-2.5,1.8-3.7,2.7c-0.6,0.4-1.1,1-1.8,1.6c0-1.5,0-2.8,0-4c0-0.2,0.4-0.6,0.6-0.6
		c0.6,0,0.6-0.4,0.8-0.8c0.5-0.9,0.9-1.9,1.6-2.7c1-1.1,2.1-2.1,3.2-3.1c0.3-0.3,0.5-0.6,0.9-0.9c-0.1-0.2-0.3-0.3-0.4-0.5
		c-0.4-0.9-1.1-1.1-1.9-0.5c-1.1,0.9-2.1,1.9-3.1,2.8c-0.6,0.5-1.2,1.1-1.8,1.8c0-1.1,0-2,0-3c0-0.1,0.3-0.3,0.4-0.3
		c0.7,0.3,1-0.2,1-0.7c0.2-1.3,0.9-2.3,1.8-3.2c1-0.9,1.9-2,2.9-2.8c0.7-0.5,0.7-1,0.4-1.7c-0.2-0.5-1.1-0.9-1.7-0.6
		c-0.4,0.2-0.7,0.5-1,0.8c-0.9,1.1-1.7,2.3-3,3c-0.3,0.2-0.5,0.7-0.9,1.1c0-1.5,0-2.9,0.1-4.4c0-0.2,0.2-0.4,0.4-0.5
		c0.7-0.3,1.5-0.6,2.2-1c0.2-0.1,0.3-0.5,0.3-0.7c0-0.6-0.1-1.2-0.1-1.9c1.5,0.3,1.8-1.1,2.6-1.7c0.6-0.4,1.1-1,1.6-1.6
		c0.4-0.4,0.8-1,0.3-1.6c-0.6-0.7-1.8-0.7-2.4,0c-0.9,1-1.7,2-2.6,2.9c-0.7,0.7-1.4,1.3-2.2,2c0-1.1,0.1-2,0-3c0-1,0.6-1.4,1.3-1.5
		c1-0.2,1.4-0.9,1.7-1.7c0.3-0.6,0.8-1.1,1.2-1.6c0.8-0.9,1.6-1.8,2.4-2.7c0.5-0.5,0.9-1.1,1.3-1.7c-0.7-1.8-2.1-1.6-3.2-0.3
		c-0.6,0.8-1.1,1.6-1.8,2.3c-0.8,0.8-1.6,1.6-2.5,2.4c0-0.9,0-1.9,0.1-2.8c0-0.5,0-1,0.8-1c0.7,0,1-0.5,1.4-1.2
		c0.7-1.4,1.6-2.7,2.6-4c0.5-0.7,1.2-1.2,1.8-1.7c0.5-0.4,0.1-1.7-0.6-2c-1-0.4-1.5-0.1-2.2,0.8c-1,1.3-2,2.5-3.2,3.7
		c0-0.6,0-1.1,0.1-1.7c0.1-1.2,0.3-2.3,0.4-3.5c0-0.1,0.2-0.3,0.2-0.4c-0.4-1.1,0.4-1.2,1.1-1.4c0.7-0.2,0.9-0.6,0.8-1.3
		c0-0.3,0-0.6,0.2-0.8c1-1.5,2.1-2.9,3.1-4.4c0.3-0.5,0.5-1.1,0.7-1.6c-0.6-0.3-1-0.5-1.4-0.7c-0.7-0.3-1.5,0.3-1.9,1.1
		c-0.5,1.1-1.2,2.2-1.8,3.3c-0.1,0-0.2-0.1-0.2-0.1c0-0.8,0-1.6,0.1-2.4c0-0.2,0.4-0.5,0.6-0.6c0.7-0.2,1.1-0.6,1.3-1.2
		c0.4-1.7,1.5-2.8,2.6-3.9c1-1.1,2.1-2.1,3.1-3.3c0.3-0.4,0.3-1,0.4-1.6c-0.7-0.8-2-0.7-2.8,0.2c-1,1-2,2-3,3
		c-0.5,0.5-0.9,0.9-1.5,1.5c0.5-2.2,1-4.2,1.5-6.3c0.2,0,0.3,0,0.4,0.1c0.7,0.4,1.2,0.2,1.7-0.5c0.4-0.6,1.1-1,1.6-1.6
		c0.5-0.6,1-1.3,1.5-2c0.6-0.9,1.1-1.9,1.7-2.7c0.4-0.5,0.9-0.8,0.7-1.6c-0.3-1.1-0.6-1.4-1.8-1.4c0.4-0.3,0.8-0.8,1.3-1
		c1.2-0.5,2.5-1.1,3.8-1.3c1.5-0.3,3.1-0.4,4.7-0.5c2.5-0.2,4.9-0.5,7.4-0.6c2.3,0,4.5,0.1,6.8,0.3c2.4,0.2,4.8,0.7,7.2,1
		c2.9,0.3,5.8,0.6,8.6,0.9c2.3,0.3,4.6,0.6,6.9,0.9c1.6,0.2,3.2,0.4,4.8,0.7c1.2,0.2,2.4,0.6,3.7,0.7c1.8,0.1,3.4,0.6,5,1.3
		c0.9,0.4,1.7,0.8,2.5,1.3c1.3,1,2.5,2,3.7,3.1c0.7,0.6,1.2,1.4,1.7,2.2c0.6,1,1.1,2.1,1.7,3.2c0.5,1,1,2,1.3,3.1
		c0.4,1.2,0.6,2.4,0.9,3.6c0.3,1.4,0.6,2.9,1,4.3c0.7,2.9,0.9,5.9,0.9,8.9c0,2,0,4,0.2,6c0.3,2.7,0.2,5.4,0.2,8.1
		c0,1.3,0.1,2.7,0.1,4c-0.1,1.6-0.3,3.2-0.4,4.8c-0.1,1.2-0.1,2.4-0.2,3.5c-0.2,2-0.4,4-0.5,6c-0.1,0.9,0,1.7-0.1,2.6
		c0,0.5,0,1-0.1,1.5c-0.1,1.6-0.3,3.2-0.4,4.8c0,0.6,0.4,1.3,0.1,1.6c-0.6,0.9,0.1,1.7-0.3,2.6c-0.4,0.8-0.2,1.9-0.2,2.9
		c0,1.1,0,2.2-0.1,3.4c-0.1,2.1-0.2,4.2-0.2,6.2c0,1.6,0.1,3.2,0.1,4.8c0,2.1-0.1,4.2-0.2,6.3c0,2.5,0,5-0.1,7.5
		c0,2.1-0.1,4.2-0.1,6.3c0,2.1,0,4.1,0,6.2c0,1.4,0.1,2.9,0.1,4.3c0,1.6-0.1,3.1-0.1,4.7c0,1.6,0.2,3.3,0.2,4.9c0,1.2-0.1,2.4,0,3.6
		c0,1,0.1,2,0.1,3c0,0.6-0.1,1.1-0.1,1.7c0.1,1.6,0.2,3.2,0.2,4.8c0,1.7,0,3.4,0,5.1c0,2.3,0.1,4.6,0.2,6.9c0,0.8,0.1,1.6,0.1,2.4
		c0,0.5-0.2,0.9-0.2,1.4c0,1.7,0.1,3.4,0,5.2c-0.1,2.3-0.3,4.7-0.5,7c-0.1,1.6-0.1,3.2-0.3,4.7c-0.3,2.5-0.8,5-1.2,7.6
		c-0.2,1.3-0.4,2.7-0.7,4c-0.2,0.9-0.5,1.7-0.7,2.6c-0.4,1.3-0.7,2.7-1.1,4c-0.6,1.8-1.2,3.5-1.8,5.2c0,0.1-0.1,0.2-0.2,0.3
		c-0.8,0.4-1.7,0.8-2.6,1.1c0.6-1.2,1.6-2.2,0.6-3.5c-0.3-0.1-0.7-0.3-1.4-0.6c-1,0.2-1.4,1.4-2,2.2c-0.5,0.7-0.9,1.5-1.3,2.2
		c-0.1,0.2-0.2,0.4-0.2,0.6c-0.2,1.1-0.6,1.6-1.9,1.8c0-0.2,0.1-0.3,0.1-0.5c0.3-1,0.1-1.5-0.8-2c-0.7-0.3-1.7,0-2.2,0.6
		c-1.3,1.8-2.7,3.4-4.5,4.5c-0.8,0.5-1.8,0.6-2.6,0.9c0-0.1-0.1-0.1-0.1-0.2c0.4-0.6,0.8-1.3,1.2-1.9c0.3-0.5,0.4-1,0.7-1.4
		c0.5-0.8,0.1-1.2-0.5-1.5c-0.6-0.3-1.1-0.1-1.5,0.4c-0.9,1.1-1.9,2.2-2.9,3.3c-0.4,0.5-0.9,1-1.3,1.5c-0.4,0.4-2.5,0.9-3,0.6
		c-0.1-0.1-0.2-0.6-0.1-0.7c0.5-0.6,1-1.2,1.5-1.8c0.2-0.3,0.3-0.7,0.4-1.1c0-0.1,0-0.3,0.1-0.4c0.3-0.4,0.6-0.8-0.1-1.2
		c-0.8-0.4-1.7-0.3-2,0.3c-0.7,1.4-1.9,2.4-3,3.5c-1.3,1.3-2.9,1.4-4.5,1.1c-0.2,0-0.4,0-0.9-0.1c0.5-0.5,0.9-0.8,1.2-1.2
		c0.6-0.6,1.5-1,1.7-2c0.1-0.6,0.1-1.2-0.5-1.4c-0.5-0.2-1.2,0-1.8,0.1c-0.2,0-0.4,0.4-0.6,0.6c-0.8,0.8-1.6,1.6-2.4,2.3
		c-1.4,1.3-2.9,1.8-4.8,0.8c0.6-0.7,1.1-1.3,1.8-1.9c0.7-0.6,0.9-1.2,0.4-2.1c-0.4-0.7-1-0.7-1.6-0.6c-0.1,0-0.3,0.1-0.4,0.2
		c-1,1.1-2.1,2.3-3,3.4c-0.6,0.7-1.2,0.9-2.2,0.7c0-0.3,0-0.5,0-0.9c1,0.2,1.2-0.6,1-1.2c-0.1-0.5-0.5-1-1.2-1.3
		c-1.3-0.6-1.5,0.6-2.1,1.1c-0.5,0.4-0.8,1-1.3,1.4c-0.4,0.3-1,0.4-1.5,0.4c-1.4-0.1-2.7-0.3-4.3-0.6c0.5-0.6,0.9-1.1,1.3-1.5
		c0.2-0.2,0.4-0.3,0.6-0.5c0.6-0.7,0.6-1.3-0.1-1.9c-0.5-0.4-1.3-0.3-1.8,0.2c-0.8,0.9-1.7,1.7-2.5,2.6c-0.5,0.5-0.9,0.5-1.5,0.3
		c-0.7-0.2-1.4-0.5-2.2-0.7c-0.9-0.3-1-0.7-0.4-1.4c0.2-0.3,0.5-0.6,0.8-0.8c0.9-0.4,1-1.3,1.3-2.1c0.1-0.3-0.2-0.9-0.5-1
		c-0.4-0.2-1-0.5-1.5,0.2c-0.9,1.1-1.9,2-2.9,3c-0.1,0.1-0.3,0.2-0.4,0.2c-0.3-0.3-0.6-0.5-0.9-0.7c-0.3-0.2-0.2-1.6,0.1-2
		c0.8-0.8,1.5-1.7,2.3-2.5c0.4-0.5,0.8-0.9,0.4-1.7c-0.7-1.1-1.5-1.2-2.3-0.2c-0.8,1-1.6,1.9-2.4,2.8c-0.3,0.4-0.7,0.8-1.1,1.2
		c-0.8-0.8-1.7-1.6-2.4-2.5c-0.2-0.2,0-0.9,0.2-1.2c0.9-1.1,1.9-2.1,2.8-3.1c0.3-0.3,0.6-0.6,0.9-0.9c0.6-0.6,0.1-1.1-0.2-1.5
		c-0.2-0.3-0.7-0.5-1-0.5c-0.5,0.1-1,0.2-1.4,0.8c-0.7,1-1.7,1.7-2.5,2.6c-0.2,0.2-0.2,0.5-0.4,0.7c-0.4,0.7-0.8,0.7-1.2,0
		c-0.4-0.7-0.6-1.3-0.6-2.2c-0.1-1.6,1-2.4,1.7-3.4c0.7-1,1.6-2,2.3-3c0.3-0.4,0.8-1,0.2-1.6c-0.5-0.5-1.1-0.7-1.8-0.4
		c-0.2,0.1-0.5,0.1-0.7,0.2c-0.4,2-2.3,2.9-3.3,4.6c-0.3-1-0.5-1.8-0.7-2.7c-0.1-0.5,0-0.8,0.5-1.1c0.4-0.2,0.9-0.9,0.9-1.3
		c-0.1-1.2,0.8-1.9,1.4-2.7c0.7-1,1.6-2,2.4-2.9c0.1-0.1,0.2-0.3,0.3-0.4c0.5-0.4,0.8-1.1,0.4-1.6c-0.3-0.4-1-0.6-1.5-0.6
		c-0.4,0-0.8,0.3-1.2,0.8c-1.1,1.6-2.4,3.1-3.6,4.7c-0.1,0-0.2,0-0.2,0c-0.1-0.3-0.2-0.7-0.2-1c0-1.2,0.1-2.5,0.2-3.7
		c0-0.2,0.3-0.4,0.5-0.5c0.3-0.1,0.7-0.2,1.1-0.3c0.6-0.2,1.4-0.4,0.6-1.3c-0.1-0.1,0-0.5,0.1-0.7c0.4-0.5,0.8-0.9,1.2-1.4
		c1-1.2,2.1-2.3,3.1-3.5c0.4-0.4,0.3-1.5-0.1-1.9c-0.5-0.5-1.1-0.4-1.6,0.1c-0.8,0.9-1.6,1.9-2.4,2.7c-0.7,0.8-1.5,1.5-2.2,2.2
		c-0.1,0-0.2-0.1-0.3-0.1c0.1-1.2,0.2-2.3,0.4-3.5c0.1-0.2,0.7-0.5,1.1-0.5c0.8-0.1,0.8-0.6,0.5-1.1c-0.3-0.6-0.1-0.8,0.3-1.2
		c1.2-1.1,2.3-2.3,3.5-3.5c0.2-0.2,0.3-0.5,0.6-0.7c0.2-0.2,0.6-0.5,0.6-0.7c0.1-0.8-0.5-1.4-1.1-1.4c-1-0.1-1.5,0.6-2.1,1.2
		c-1,1.1-2,2.2-3.1,3.4c-0.3-0.9-0.4-1.8,0.1-2.6c0.7-1.2,1.3-2.4,2.2-3.4c1.1-1.2,2.4-2.2,3.7-3.3c0.7-0.6,1.3-1.1,0.9-2.1
		c-0.9-0.5-1.5-0.4-2.3,0.4c-1,0.9-2.2,1.6-3.2,2.4c-0.5,0.4-0.8,0.9-1.3,1.4c0-0.9,0-1.6,0-2.3c0-0.6,0.2-0.7,0.7-0.7
		c0.4,0,0.8-0.2,1.3-0.3c-0.6-0.9-0.4-1.5,0.3-2.1c0.8-0.8,1.5-1.7,2.2-2.6c0.4-0.5,0.9-1,1.3-1.5c0.5-0.8,0.4-1.3-0.4-1.7
		c-1.1-0.6-1.9-0.2-2.5,0.9c-0.5,0.9-1.2,1.7-1.8,2.4c-0.3,0.4-0.7,0.7-1.3,1.1c0-1.2-0.4-2.1,0.5-3c0.8-0.9,1.4-2.1,2.1-3.1
		c0.7-1,1.6-1.9,2.4-2.7c0.7-0.7,1.5-1.3,2.1-2.1c0.2-0.2,0.4-0.8,0.3-1c-0.2-0.4-0.6-0.8-0.9-0.9c-1.1-0.3-1.7,0.1-2.2,1.1
		c-0.3,0.6-0.9,1.1-1.4,1.7c-0.8,0.9-1.7,1.7-2.5,2.6c-0.1,0.1-0.3,0.2-0.4,0.4c-0.3-1.1-0.2-1.2,0.7-1.5c0.2-0.1,0.3-0.4,0.4-0.7
		c0.2-0.8,0.1-1.8,0.6-2.4c0.9-1.2,1.5-2.6,2.9-3.4c1-0.6,1.9-1.6,2.7-2.5c0.5-0.5,0.3-1.1-0.1-1.6c-0.4-0.4-1.3-0.3-1.8,0.1
		c-1.2,1.3-2.4,2.6-3.6,3.8c-0.5,0.5-1.1,0.9-1.8,1.5c0-1.2-0.1-2.1,0.1-3c0.1-0.4,0.5-0.9,0.9-1.1c0.9-0.4,1.6-0.9,1.9-2
		c0.3-1,1.2-1.9,2-2.7c1.3-1.4,2.7-2.7,4.1-4c-0.5-0.5-0.8-0.8-1.1-1.1c-0.6-0.5-1.2,0-1.6,0.4c-0.9,0.8-1.7,1.8-2.6,2.6
		c-0.9,0.9-1.9,1.8-2.9,2.7c0-0.7,0-1.5-0.1-2.3c0-0.9,0.9-1.2,1.4-1.5c1.2-0.8,1.6-1.9,2.2-3c0.2-0.4,0.5-0.7,0.7-1
		c0.5-0.6,1-1.3,1.6-1.9c0.6-0.6,1.3-1.2,2-1.8c0.4-0.3,0.9-0.7,0.5-1.2c-0.3-0.4-0.9-0.7-1.4-0.8c-0.4-0.1-0.9,0.2-1.2,0.5
		c-1.4,1.5-2.7,3-4,4.5c-0.3,0.3-0.6,0.6-1,0.9c-0.1,0-0.1-0.1-0.2-0.1c0-1,0.1-1.9,0.1-2.9c0-0.3,0-0.5,0.1-0.8
		c0.1-0.3,0.3-0.6,0.5-0.7c0.8-0.4,1.5-0.6,1.7-1.7c0.1-0.6,0.7-1.1,1.1-1.7c0.8-1,1.5-1.9,2.3-2.8c0.6-0.6,1.4-1,2.1-1.5
		c0.8-0.5,0.5-1,0.2-1.5c-0.3-0.5-1.1-0.7-1.5-0.3c-1.7,1.5-3.3,2.9-4.9,4.4c-0.4,0.3-0.7,0.6-1,1c-0.1,0-0.2-0.1-0.2-0.1
		c0.1-1.4,0.2-2.8,0.2-4.1c0.8-0.2,1.5-0.3,2.1-0.5c0.5-0.2,0.8-0.6,0.9-1.2c0.2-1.2,1-2.2,1.9-3c0.9-0.9,1.8-1.7,2.7-2.6
		c0-0.9-0.5-1.3-1.3-1.4c-0.8-0.1-1.3,0-1.8,0.8c-0.4,0.7-1.1,1.3-1.7,1.9c-0.9,1-1.7,2-2.7,3.1c0-1.1,0-2.1,0-3.1
		c0-0.1,0-0.3,0-0.4c-0.1-0.9,0.3-1.3,1.1-1.6c1.2-0.3,1.3-0.7,0.9-1.8c-0.1-0.2,0.2-0.7,0.4-0.9c0.3-0.3,0.7-0.4,1-0.7
		c1.2-1,2.3-2.1,3.5-2.9c1.4-1,1.1-1.9,0.3-2.5c-0.6-0.4-1.1-0.2-1.6,0.1c-1.3,1.1-2.6,2.3-3.9,3.5c-0.5,0.4-0.9,0.8-1.5,1.3
		c0-0.8,0.1-1.5-0.1-2.1c-0.2-0.9,0.2-1.3,0.9-1.9c1-0.9,1.8-2.1,2.7-3.1c0.8-0.9,1.8-1.8,2.6-2.7c0.3-0.4,0.7-1,0.6-1.5
		c0-0.3-0.7-0.8-1.1-0.8c-0.5-0.1-1.2-0.1-1.6,0.6c-0.1,0.2-0.2,0.4-0.4,0.6C175.3,324.1,174.2,325.2,172.8,326.6z M231.9,267.9
		c-0.1,0-0.1,0-0.2,0c-0.1-0.2-0.2-0.4-0.2-0.6c-0.3-1.5-0.6-3-0.9-4.5c-0.3-1.3-1.2-2.1-2.2-2.7c-0.7-0.4-1.3-0.9-2-1.2
		c-0.8-0.3-1.7-0.4-2.6-0.7c-0.6-0.1-1.1-0.3-1.7-0.4c-1.2-0.4-2.5-0.8-3.7-1.1c-1.8-0.4-3.5-0.7-5.3-0.9c-1.5-0.2-3.1-0.3-4.6-0.3
		c-1.6,0-3.1,0.5-4,2c-0.6,0.9-1,1.9-1.4,2.9c-0.9,2.1-1.2,4.4-1.3,6.7c-0.1,1.6,0.1,3.2,0,4.9c-0.1,2.1-0.2,4.2-0.4,6.4
		c0,0.4,0,0.7,0,1.1c0,0.8,0,1.7-0.1,2.5c-0.1,1.4-0.3,2.8-0.5,4.2c-0.1,1.3-0.2,2.6-0.3,3.8c-0.2,1.7-0.5,3.5-0.7,5.2
		c-0.1,1.3,0,2.5,0,3.8c0,1.2-0.2,2.5-0.3,3.7c-0.1,1.2,0,2.4,0,3.6c0,1.6,0,3.3,0,4.9c0,2.5-0.1,5.1-0.2,7.6c0,0.5-0.1,0.9-0.1,1.4
		c0,0.7,0.1,1.4,0.1,2.1c-0.1,1.3-0.2,2.6-0.3,3.9c0,0.9,0.1,1.8,0.1,2.7c0,1-0.1,2-0.2,3c0,0.9,0.1,1.7,0,2.6
		c0,1.2-0.1,2.4-0.1,3.5c0,1.4,0,2.9,0,4.3c0,1.3-0.2,2.6-0.2,3.9c0,2,0.1,4,0.1,6c0,1-0.2,2.1-0.2,3.1c0,2,0.1,4,0.1,5.9
		c0,1.9-0.1,3.8-0.1,5.8c0,1.7,0,3.4,0,5.1c-0.1,2.1-0.2,4.2-0.4,6.2c-0.1,0.8-0.2,1.6-0.3,2.4c-0.1,1.1-0.4,2.2-0.5,3.3
		c-0.2,2.6-0.4,5.3-0.5,7.9c-0.1,3.3-0.2,6.6-0.2,9.9c0,2.1,0.2,4.2,0.1,6.3c-0.1,2.1,0.5,4,1,6c0.1,0.5,0.6,0.9,0.9,1.3
		c0.8,1,1.7,1.7,3,2c1.5,0.3,2.9,1,4.4,1.2c2.3,0.4,4.7,0.2,7-0.1c1.5-0.2,2.9-0.8,4.4-1.2c0.8-0.2,1.6-1.1,2.5-0.7
		c0.6,0.3,1.1,0,1.4-0.2c1.3-0.8,2.5-1.7,3.7-2.6c0.4-0.3,0.8-0.7,1.3-1c0.3-0.2,0.7-0.5,1.1-0.7c0.2-0.1,0.3-0.2,0.4-0.4
		c0-0.1,0-0.4-0.1-0.4c-0.9-0.6-2-0.8-3,0c-0.2,0.1-0.3,0.2-0.5,0.3c-0.1-0.1-0.2-0.2-0.3-0.3c0.5-0.6,1-1.3,1.5-1.9
		c0.8-0.8,1.7-1.6,2.6-2.4c0.8-0.7,1.6-1.3,2.3-2c0.2-0.2,0.2-1,0-1.1c-0.4-0.3-0.8-1.1-1.5-0.7c-0.6,0.4-1.3,0.8-1.8,1.3
		c-1.1,0.9-2.1,1.9-3.2,2.9c-0.1,0.1-0.3,0.3-0.4,0.4c-0.1-0.1-0.2-0.2-0.3-0.3c0.4-0.9,0.6-1.9,1.2-2.7c1.4-1.8,3-3.6,4.5-5.3
		c0.6-0.6,0.7-1.2,0.1-1.9c-0.5-0.6-1.4-0.8-1.8-0.3c-1,1.1-2,2.3-3.1,3.5c-0.3-1-0.2-1.9,0.4-2.7c0.7-1,1.6-2,2.3-3
		c0.5-0.6,0.8-1.4,1.3-1.9c1.6-1.4,1.6-1.5,0.1-3c-0.1-0.1-0.2-0.3-0.3-0.4c-0.9,0.2-1.3,0.8-1.7,1.5c-0.5,0.8-1.1,1.5-1.7,2.3
		c-0.1-0.1-0.2-0.1-0.3-0.2c0.2-0.5,0.4-1,0.7-1.5c0.3-0.5,0.8-1,1.1-1.5c1.5-2.1,2.8-4.3,4.7-6.1c0.9-0.8,0.7-1.9-0.5-2.1
		c-0.3-0.1-0.8,0.1-1.1,0.3c-1,1-2,2-3,3c-0.5,0.5-0.9,1.1-1.4,1.7c-0.4-1.5,0.3-2.7,1-3.7c1-1.4,2-2.9,3.1-4.3
		c0.6-0.8,1.4-1.5,2.2-2.2c0.6-0.5,0.7-1.1,0.6-1.8c-0.1-0.4-0.5-0.8-0.9-0.9c-0.6-0.2-1.1,0.1-1.5,0.6c-0.7,0.8-1.3,1.7-2,2.5
		c-0.6,0.7-1.3,1.4-2,2.2c-0.1-0.2-0.1-0.2-0.1-0.3c0.1-1,0.1-2,0.3-3c0.1-0.3,0.6-0.6,0.9-0.9c0.3-0.2,0.8-0.4,0.8-0.7
		c0-1.2,1-1.9,1.6-2.7c1-1.3,2.2-2.4,3.2-3.6c0.8-0.9,0.7-1.6-0.2-2.5c-0.4,0.2-1,0.2-1.3,0.5c-0.8,0.7-1.4,1.6-2.1,2.4
		c-0.8,0.8-1.6,1.6-2.4,2.4c-0.1-0.7-0.1-1.4,0-2c0.1-0.7,0.1-1.5,1-1.9c0.5-0.2,0.8-0.8,1.1-1.3c0.4-0.6,0.6-1.4,1-1.9
		c1.7-2,3.5-3.8,5.1-5.8c0.3-0.3,0.4-1,0.2-1.3c-0.5-0.8-1.7-0.8-2.3-0.2c-1.5,1.6-3,3.3-4.4,4.9c-0.3,0.3-0.7,0.6-1,0.9
		c0.1-1,0.1-2,0.2-2.9c0-0.4,0-0.9,0.7-0.8c0.2,0,0.6-0.3,0.7-0.5c0.6-1.4,1.2-2.8,1.7-4.1c0.1-0.3,0.3-0.5,0.5-0.7
		c0.2-0.2,0.6-0.4,0.8-0.6c0.7-0.7,1.2-1.5,2-2.1c0.7-0.6,1.5-1.1,1.4-2.2c-0.1-0.4-0.3-0.9-0.4-1.2c-1.1-0.1-1.8,0.1-2.1,1.2
		c-0.1,0.3-0.4,0.4-0.7,0.6c-0.9,0.9-1.8,1.8-2.7,2.8c-0.4,0.4-0.8,0.7-1.2,1.2c0.1-0.8,0.2-1.4,0.3-2c0-0.4-0.1-1,0.1-1.2
		c0.6-0.5,0.7-1.3,1.1-2c0.4-0.7,0.9-1.3,1.4-1.9c0.4-0.6,0.8-1.2,1.2-1.7c0.1-0.2,0.4-0.3,0.5-0.4c0.3-0.2,0.6-0.4,0.7-0.7
		c0.2-0.5,0.4-0.9,1-1.2c0.4-0.2,0.8-0.7,1-1.1c0.2-0.4,0.3-1.1,0-1.4c-0.7-0.9-2.2-0.6-2.8,0.4c-1,1.5-2.1,2.9-3.2,4.3
		c-0.1,0-0.2,0-0.3-0.1c0-0.9,0.1-1.8,0.1-2.6c0-0.7,0.2-1.3,1.1-1.3c0.2,0,0.4-0.4,0.5-0.6c0.3-0.6,0.3-1.4,0.7-1.9
		c1-1.2,2.1-2.3,3.1-3.5c0.6-0.6,1-1.4,1.5-2.1c0.2-0.3,0.4-0.6,0.6-0.9c0.2-0.1,0.1-0.3,0.2-0.4c0.3-0.7,0-1.1-0.7-1.3
		c-0.7-0.3-1.2,0.1-1.5,0.5c-1.1,1.2-2.1,2.5-3.1,3.8c-0.5,0.6-1,1.1-1.6,1.7c-0.1-0.4-0.1-0.7-0.1-0.9c0.1-1.1,0.3-2.2,0.2-3.4
		c-0.1-1.3,0.4-2.2,1.7-2.4c0,0,0.1-0.1,0.1-0.2c-0.4-0.8,0.2-1.4,0.6-2c1.6-1.8,3.2-3.6,4.8-5.4c0.3-0.3,0.1-1.4-0.3-1.5
		c-0.8-0.3-1.5-0.3-2.1,0.3c-0.9,1-1.8,2-2.7,3c-0.5,0.6-1.1,1.2-1.6,1.7c0-0.9,0-1.8,0.3-2.5c0.1-0.3,0.6-0.7,0.9-0.7
		c0.8,0,1.1-0.2,1.2-0.9c0-0.4,0.2-0.8,0.3-1.1c0.5-0.9,0.9-1.8,1.4-2.7c0.2-0.4,0.5-1,0.9-1.2c0.9-0.4,2.5-2.1,2.6-3.2
		c0-0.3-0.1-0.9-0.3-1c-0.4-0.2-1.1-0.3-1.4-0.1c-1.1,1-2.1,2.1-3,3.3c-0.8,0.9-1.6,1.9-2.5,3c0-1.2-0.1-2.3,0.1-3.3
		c0.4-2,1.8-3.5,2.8-5.2c1-1.7,2.4-3.2,3.7-4.9c-0.6-0.4-1-0.8-1.4-0.9c-0.8-0.3-1.7,0.5-2.1,1.1c-0.7,0.9-1.3,1.9-1.9,2.8
		c-0.2,0.3-0.4,0.5-0.6,0.8c-0.2-0.7-0.2-1.4-0.1-2c0.1-0.5,0.4-0.9,0.6-1.4c0.2-0.5,0.6-1.1-0.3-1.5c0.5-0.5,0.9-1,1.4-1.6
		c0.3-0.3,0.4-0.8,0.7-1.1c1.1-1.3,2.3-2.6,3.5-4c0.4-0.5,0.4-1.7,0-2c-0.7-0.5-1.7-0.4-2.1,0.4c-0.8,1.4-1.8,2.6-2.9,3.7
		c-0.1,0.1-0.2,0.2-0.4,0.3c0.1-0.9,0.1-1.8,0.2-2.6c0.1-0.9-0.2-2,1.1-2.4c0.2-0.1,0.3-0.6,0.3-0.9c0.1-0.5,0.1-1.1,0.4-1.4
		c1.1-1.4,2-3,3.5-3.9c0.3-0.2,0.6-0.5,0.7-0.8c0.1-0.5,0.2-1.1,0.1-1.6c-0.1-0.3-0.6-0.6-0.9-0.5c-0.4,0-0.9,0.3-1.3,0.6
		c-1,0.9-1.9,1.9-2.9,2.9c0-0.1-0.1-0.2-0.1-0.3c0-1.1-0.1-2.2,0-3.3c0-0.2,0.2-0.3,0.3-0.5c0.3-0.5,0.6-1,0.8-1.5
		c0.5-1,0.9-2,1.5-2.9c0.6-1,1.5-1.9,2.2-2.8c0.1-0.1,0-0.3,0-0.4c0-0.8-0.5-1.5-1.3-1.7c-0.8-0.2-1.4,0-1.7,0.8
		c-0.1,0.3-0.3,0.7-0.5,1c-0.4,0.8-0.8,1.6-1.2,2.3c-0.3-0.2-0.3-0.3-0.4-0.5c-0.1-1.2-0.1-2.4-0.2-3.6c-0.1-0.8,0.1-1.1,0.9-1.2
		c0-0.5-0.2-1.1-0.1-1.6c0.4-1.2,0.6-2.5,1.5-3.5c0.2-0.3,0.4-0.8,0.4-1.1c0-0.6,0.3-1.3-0.4-1.8c-0.9-0.6-2.2,0-2.5,1
		C232.1,267.4,232,267.6,231.9,267.9z M233.6,262.9c-1.6,0-2.2,0.5-2.1,1.9c0,0.4,0.8,0.9,1.2,0.9
		C233.7,265.7,234,264.6,233.6,262.9z"/>
	<path class="st2" d="M152,428.3c-0.2-1.1-1.2-1.9-2.1-1.6c-0.4,0.1-0.8,0.5-0.9,0.9c-0.4,1.2-0.7,2.4-1.1,3.6
		c-0.2,0.5-0.7,0.9-1.1,1.2c-0.8,0.5-1.7,0.9-2.6,1.2c0.5-0.7,0.9-1.4,1.4-2.1c1.1-1.6,0.7-2.5-1.2-2.8c-0.2,0-0.3-0.1-0.3-0.1
		c-0.4,0.6-0.7,1-1,1.5c-1,1.7-2,3.3-3.1,5c-0.2,0.4-0.7,0.6-1.1,0.8c-0.6,0.3-1.2,0.4-1.9,0.7c0.1-0.3,0.1-0.5,0.2-0.7
		c0.3-0.4,0.6-0.7,1-1c0.7-0.6,0.6-1.4,0.3-2.1c-0.2-0.6-1.4-0.7-2-0.1c-1.1,1-2,2.1-3,3.1c-0.2,0.2-0.5,0.5-0.7,0.7
		c-0.2,0.2-0.6,0.4-0.6,0.6c0.1,1-0.8,1-1.4,1.2c-0.7,0.2-1.5,0.3-2.5,0.5c0.3-0.3,0.4-0.5,0.6-0.7c0.4-0.4,0.9-0.8,1.3-1.2
		c0.6-0.6,0.6-1.4,0-2c-0.4-0.5-1.4-0.5-2,0c-0.9,0.8-1.7,1.6-2.5,2.5c-0.6,0.5-1.1,1.1-1.7,1.6c-0.2,0.1-0.4,0.2-0.6,0.2
		c-0.3,0-0.6,0-1.2,0.1c0.3-0.4,0.5-0.8,0.8-1.2c0.5-0.6,0.5-1.1-0.1-1.7c-0.5-0.5-1.3-0.5-1.8,0c-1.2,1-2.4,2-3.6,3
		c-0.1,0.1-0.3,0.2-0.5,0.3c-1.2,0.1-2.4,0.1-3.9,0.2c0.7-0.7,1.1-1.2,1.6-1.7c0.7-0.7,0.7-1.1,0-1.9c-0.5-0.5-1.5-0.5-2,0.1
		c-0.9,1.1-1.7,2.1-2.7,3.2c-0.3,0.3-0.7,0.6-1.1,0.6c-2.1,0.1-4.3,0.2-6.5,0.1c0.2-0.2,0.4-0.5,0.6-0.7c0.5-0.4,1-0.7,1.5-1.1
		c0.8-0.6,0.8-0.9,0.2-1.8c-0.5-0.7-1-0.6-1.6-0.2c-1.2,0.7-2.5,1.3-3.6,2c-0.5,0.3-0.8,0.8-1.2,1.2c-0.2,0.2-0.5,0.4-0.7,0.4
		c-0.4,0-2-1.7-1.8-2c0.3-0.6,0.8-1.2,1.4-1.5c1.6-1,3.3-1.8,4.9-2.8c0.2-0.1,0.3-0.4,0.3-0.6c-0.1-1.3-1.4-1.8-2.6-1.2
		c-1.3,0.6-2.6,1.3-3.8,1.9c-0.3,0.1-0.5,0.4-0.8,0.8c-0.1-1.1-0.3-2.1-0.3-3c0-0.5,0.5-1.1,0.9-1.4c1.3-0.9,2.8-1.7,4.2-2.5
		c0.5-0.3,0.6-0.9,0.3-1.3c-0.7-0.8-1.3-0.9-2.3-0.5c-0.8,0.4-1.5,0.8-2.3,1.2c-0.3,0.1-0.6,0.2-1,0.3c-0.1-1-0.2-1.9-0.2-2.8
		c0-0.4,0.4-0.9,0.8-1.1c1.1-0.7,1.9-1.8,3.3-2.2c0.7-0.2,0.8-1,0.3-2c-0.2-0.4-0.6-0.7-1.3-0.6c-1,0.1-1.4,1-2.3,1.3
		c-0.3,0.1-0.6,0.3-1,0.5c-0.6-1.5-0.1-3,1.2-4c1-0.7,1.8-1.6,2.8-2.4c0.5-0.4,0.5-0.9,0.3-1.4c-0.6-1.3-1.7-1.5-2.7-0.4
		c-0.6,0.7-1.4,1.3-2.2,1.9c-0.1-0.6-0.2-1.1-0.1-1.5c0-0.4,0.1-0.8,0.3-1.1c1-1.5,2.4-2.5,4-3.3c0.7-0.3,0.8-0.8,0.5-1.4
		c-0.5-1-0.9-1.3-1.6-0.9c-1.1,0.6-2.1,1.2-3.2,1.8c-0.2,0.1-0.3,0.2-0.5,0.2c-0.5-2.2,0.4-3.9,2.4-4.9c0.2-0.1,0.4-0.1,0.5-0.3
		c0.8-0.8,1.7-1.1,2.7-1.4c0.2,0,0.4-0.4,0.3-0.5c-0.2-0.7-0.2-1.6-1.1-1.6c-0.6,0-1.3,0.2-1.9,0.5c-1.1,0.6-2.2,1.2-3.4,1.9
		c0-1.4,0-2.6,0-3.9c0.2,0,0.4-0.1,0.6-0.2c0,0,0.1-0.1,0.1-0.1c0.1-1.2,0.9-1.9,1.9-2.4c0.9-0.5,1.8-1.1,2.6-1.7
		c0.1-0.1,0.2-0.2,0.3-0.3c1.1-0.2,0.8-0.9,0.7-1.6c-0.1-0.8-0.8-0.8-1.3-1c-0.2-0.1-0.4,0.3-0.7,0.4c-1.4,0.5-2.5,1.4-3.7,2.4
		c-0.2,0.2-0.5,0.1-0.8,0.2c0-0.2-0.1-0.5-0.1-0.7c0-0.3,0.1-0.6,0-0.8c-0.3-1.7,0.9-2.5,2-3.4c1.4-1.2,2.9-2.2,4.4-3.4
		c0.1-0.1,0.4-0.4,0.3-0.5c-0.3-0.5-0.5-1.2-1-1.5c-0.3-0.2-1,0.1-1.5,0.4c-1.4,0.9-2.7,1.9-4.2,2.8c0.1-1.3-0.4-2.6,0.5-3.8
		c0-0.1,0.1-0.2,0.1-0.2c-0.3-1,0.5-1.3,1-1.8c0.1-0.1,0.1-0.1,0.2-0.2c0.8-1,1.8-1.6,2.9-2.2c0.7-0.4,0.8-1.1,0.5-1.9
		c-0.2-0.5-1.3-1.2-1.8-1c-0.3,0.1-0.6,0.5-0.9,0.7c-0.8,0.6-1.6,1.2-2.6,1.9c0.1-1.3,0.1-2.4,0.2-3.5c0-0.3,0.4-0.5,0.7-0.7
		c0.1-0.1,0.4-0.1,0.4-0.2c0.5-1.1,1.7-1.5,2.5-2.2c0.6-0.5,1.2-1,1.8-1.5c0.2-0.1,0.3-0.5,0.2-0.6c-0.6-1.5-1.7-1.2-2.8-0.6
		c-0.9,0.6-1.8,1.2-2.8,1.8c0-0.6-0.1-1.2-0.1-1.7c0-0.2,0.2-0.6,0.5-0.7c1.3-0.6,1.3-0.8,0.4-2c1.1-0.9,2.1-1.9,3.2-2.8
		c0.6-0.5,1.1-0.9,0.9-1.8c-0.2-0.9-1.1-1.3-1.8-0.8c-1,0.7-2,1.4-3.2,2.2c0-0.9-0.2-1.8,0.1-2.6c0.2-0.6,0.8-1,1.3-1.4
		c1-0.9,2.2-1.8,3.1-2.8c0.3-0.3,0.1-1.2-0.1-1.8c-0.1-0.2-0.7-0.4-1.1-0.5c-0.6-0.1-1.1,0-1.4,0.7c-0.3,0.6-0.9,1-1.6,1.6
		c-0.1-1.4,0-2.5,1-3.5c1.1-1.1,2.2-2.1,3.4-3c0.6-0.4,0.4-1.7-0.2-2.2c-0.6-0.4-1.8-0.2-2.3,0.3c-0.5,0.6-1.2,1.1-1.9,1.7
		c0-1.4,0-2.6,0.1-3.9c0-0.3,0.7-0.5,0.9-0.8c0.9-1.3,2.2-2.1,3.5-3c1.4-0.9,1.5-1.8,0.1-3c-2,0.1-3,1.8-4.8,2.7
		c0-0.9,0.1-1.6,0.1-2.3c-0.1-0.8,0-1.5,0.6-1.9c0.8-0.6,1.6-1.1,2.4-1.6c0.7-0.5,1.4-0.9,2-1.4c0.4-0.3,0.6-1.4,0.4-1.8
		c-0.3-0.6-1.3-0.8-2-0.4c-1,0.6-2,1.3-2.9,2c-0.2,0.1-0.3,0.2-0.5,0.4c0-1.1,0-2.1,0-3.1c0-0.2,0-0.4,0.2-0.5
		c0.7-0.6,1.4-1.1,2.1-1.7c0.8-0.6,1.5-1.2,2.3-1.7c0.5-0.3,1.1-0.6,1.7-1c0.3-1.2-0.1-2-1.3-2.1c-0.4,0-0.9,0.2-1.2,0.4
		c-1.2,0.8-2.3,1.6-3.5,2.4c-0.5-1.9-0.3-4,1.1-4.9c1-0.6,2.3-0.8,3.4-1.3c0.5-0.2,1.1-0.4,1.2-0.8c0.1-0.4-0.1-1.1-0.4-1.3
		c-0.3-0.3-1-0.5-1.4-0.4c-1.3,0.3-2.7,0.7-4.2,1.1c0.4-1.3-0.1-2.7,1.3-3.7c1.2-0.9,2.6-1.6,3.8-2.4c0.3-0.2,0.4-0.9,0.5-1.4
		c0-0.1-0.4-0.3-0.6-0.4c-0.9-0.4-1.6-0.2-2.3,0.5c-0.5,0.5-1.2,0.8-1.8,1.1c-0.5,0.3-0.8,0.1-0.8-0.5c0-1,0-1.9,0.1-2.9
		c0.1-0.5,0.4-1.1,0.8-1.4c1-0.6,2-1.1,3.1-1.6c0.5-0.3,0.8-1.2,0.5-1.8c-0.2-0.4-1.4-0.7-1.9-0.4c-0.8,0.5-1.6,1.1-2.6,1.7
		c0.1-0.8,0.1-1.4,0.2-2.1c0.1-0.5,0.5-0.9,0.5-1.5c0-0.4,0.7-0.8,1.2-1.1c0.8-0.5,1.7-0.9,2.5-1.3c1.4-0.8,1.4-0.8,0.7-2.2
		c-2.1-0.5-3.4,1.4-5.4,1.6c-0.1-0.6-0.2-1.3-0.4-1.9c0-0.1,0-0.2,0-0.2c0.9-0.5,0.8-1.7,1.8-2.3c1.4-0.8,2.6-1.9,3.8-2.9
		c0.6-0.5,0.7-1.2,0.4-1.9c-0.2-0.5-1.7-0.8-2.2-0.4c-0.7,0.6-1.3,1.3-1.9,1.9c-0.6,0.6-1.3,1-2,1.6c-0.5-1.5,0-3.1,1.2-3.9
		c1.1-0.8,2.2-1.6,3.3-2.4c0.2-0.1,0.5-0.2,0.7-0.3c0.3-0.2,0.8-0.5,0.7-0.5c-0.2-0.5-0.4-1.1-0.8-1.3c-0.4-0.2-1,0.1-1.5,0.3
		c-0.9,0.4-1.8,0.9-2.7,1.4c-0.6,0.3-1.1,0.7-1.8,1.2c-0.2-1-0.4-1.8-0.4-2.6c0-0.5,0.3-1,1-0.7c0.3,0.1,0.6,0.1,1,0.1
		c-0.2-1.4,1-1.7,1.8-2.2c0.9-0.6,2.2-1.9,2.5-2.9c-1-0.1-1.9-0.1-2.7,0.5c-1.1,0.7-2.2,1.3-3.3,1.9c-0.1,0.1-0.3,0.1-0.6,0.1
		c0.2-1.8,1.1-2.9,2.7-3.5c1.4-0.5,2.7-1.1,4.1-1.5c0.7-0.2,1.5-0.2,2.3-0.3c0.6-0.1,1.3-0.2,1.9-0.2c1.7-0.1,3.4-0.1,5.1-0.1
		c1.6,0,3.1-0.1,4.7-0.1c1.5,0,3,0.1,4.5,0.1c2.2,0,4.4,0,6.6,0c1.8,0,3.7-0.3,5.5-0.2c2,0.1,4,0.2,5.9,1c1.4,0.6,2.9,1.1,4.2,1.8
		c1.5,0.8,2.9,1.7,4,3c1,1.3,2.1,2.5,2.9,3.9c0.7,1.3,1.2,2.7,1.8,4.1c0.5,1.1,0.9,2.2,1.3,3.3c0.4,1,0.6,2.1,0.9,3.2
		c0.4,1.6,0.8,3.2,1.2,4.8c0.3,1.1,0.5,2.2,0.7,3.3c0.3,1.7,0.6,3.3,0.8,5c0.3,1.9,0.5,3.7,0.8,5.6c0.2,1.6,0.6,3.3,0.8,4.9
		c0.3,2,0.5,4,0.6,6c0.2,2.4,0.4,4.9,0.6,7.4c0.1,1.7,0.3,3.4,0.4,5.1c0.2,2,0.4,4,0.4,5.9c0,1.1-0.1,2.1-0.1,3.2
		c0,0.8,0.2,1.6,0.3,2.4c0,0.7,0,1.5,0,2.2c0.1,2,0.2,3.9,0.3,5.9c0.1,2.9,0.2,5.8,0.2,8.6c0,1.2,0.1,2.3,0.2,3.5c0,2.3,0.1,4.7,0,7
		c-0.1,2.3-0.3,4.6-0.4,6.8c-0.1,2.1-0.2,4.2-0.2,6.3c0,2.1,0.1,4.2,0.2,6.3c0,2.4,0.1,4.9,0,7.3c0,1.6-0.1,3.2-0.2,4.9
		c0,0.3,0.1,0.6,0.2,0.9c0,0.7,0,1.3,0,2c0,0.4-0.1,0.9-0.1,1.3c0,1.3,0.1,2.5,0,3.8c-0.2,2.2-0.4,4.4-0.9,6.5
		C154.4,425.5,153.3,426.9,152,428.3z M133.1,298.1c-1.1-0.5-2-0.4-2.4,0.9c0,0.1-0.6,0.1-0.7-0.1c-1.1-1.6-2.8-2.2-4.5-2.9
		c-2-0.8-4.2-0.4-6.3-0.3c-1.4,0-2.7,0.3-4.1,0.4c-1.1,0.1-2.2,0.1-3.3,0.2c0,0-0.1,0-0.1,0c-0.5,0.6-1.1,1.1-1.3,1.7
		c-0.2,0.7,0,1.5,0,2.3c0,1.2,0,2.3,0,3.5c0,0.4,0.2,0.9,0.1,1.3c0,1.1-0.2,2.1-0.2,3.1c0,1.3,0.1,2.6,0.1,3.9c0,1.9,0,3.9,0,5.8
		c0,1.7,0.2,3.4,0.2,5.1c-0.1,2.1,0,4.3,0.1,6.4c0,1.5,0.1,3,0.2,4.5c0,2.6,0,5.2,0,7.8c0,2.2,0.1,4.3,0.1,6.5c0,0.9,0,1.7,0,2.6
		c0,1.6,0.1,3.2,0.1,4.7c0,1.7,0,3.4-0.1,5.1c0,0.1,0,0.2,0,0.3c0.1,2,0.2,3.9,0.2,5.9c0,2.1,0,4.3,0.1,6.4c0.1,2.2,0.3,4.4,0.3,6.6
		c0.1,2.1,0,4.2,0,6.3c0,1.8,0.1,3.6,0.1,5.3c0,1.7,0.2,3.4,0.2,5.1c0,2.2-0.1,4.4-0.1,6.7c0,0.8,0.3,1.5,0.4,2.3
		c0.1,1.2,0.1,2.5,0.2,3.7c0.3,2.2,0.8,4.5,1,6.7c0.3,3,2.3,4.6,5.1,4.4c1.6-0.1,3.3-0.3,4.9-0.5c1.5-0.2,3-0.6,4.5-0.9
		c0.9-0.2,1.8-0.8,2.7-0.9c1-0.1,1.8-1.1,3-0.8c0.3,0.1,0.9-0.2,1.1-0.6c0.6-1.1,1.7-1.6,2.5-2.3c0.4-0.4,0.8-0.7,1.3-0.9
		c0.7-0.2,0.8-0.6,0.6-1.2c-0.2-0.6-0.6-0.9-1.2-0.7c-0.2,0.1-0.4,0-0.7,0.1c0.5-0.7,0.9-1.4,1.5-1.9c0.5-0.6,1.2-1,1.7-1.5
		c0.5-0.5,0.6-1.6,0.2-2c-0.4-0.5-1.5-0.4-2.1,0.1c-0.2,0.1-0.4,0.2-0.5,0.3c-0.1-0.1-0.1-0.1-0.2-0.2c0.7-0.9,1.5-1.9,2.3-2.8
		c0.7-0.8,1.5-1.5,2.1-2.3c0.3-0.4,0.5-0.9,0.5-1.4c0-0.3-0.4-0.7-0.7-0.9c-0.3-0.2-0.9-0.2-1.2,0c-0.4,0.3-0.7,0.8-1.1,1.2
		c-0.6,0.6-1.3,1.3-2,2c-0.3-2,0.6-3.3,1.4-4.7c0.2-0.3,0.5-0.5,0.8-0.8c0.3-0.3,0.5-0.6,0.8-0.9c0.4-0.5,0.7-0.9,1.1-1.5
		c0,0-0.1-0.1-0.2-0.3c-0.6-1.4-1.3-1.6-2.6-0.8c-0.2,0.1-0.4,0.3-0.6,0.5c-0.3,0.5-0.5,1-0.7,1.5c-0.2-1-0.3-1.9-0.3-2.8
		c0-0.2,0.3-0.6,0.4-0.6c1,0,0.7-0.8,0.9-1.3c0.3-0.8,0.6-1.7,1.2-2.3c0.7-0.8,1.6-1.5,2.4-2.1c0.5-0.4,0.5-0.9,0.3-1.3
		c-0.1-0.3-0.5-0.6-0.9-0.8c-0.8-0.4-1.4,0.1-1.9,0.6c-0.8,0.8-1.7,1.7-2.6,2.6c-0.1-0.5-0.1-0.9-0.2-1.3c-0.3-0.8,0.1-1.2,0.9-1.1
		c0.7,0,0.9-0.5,0.8-0.9c-0.1-0.8,0.3-1.1,0.7-1.6c0.4-0.5,0.7-1,1-1.5c0.1-0.2,0.3-0.4,0.5-0.6c1-0.6,1.6-1.7,1.4-2.7
		c-0.1-0.5-1.2-1-1.6-0.7c-1.3,1.2-2.5,2.5-3.9,3.8c0-0.5,0-1.1-0.1-1.6c-0.2-0.9,0-1.5,0.9-1.8c0-0.2,0.1-0.4,0-0.6
		c-0.3-0.6,0-1,0.3-1.4c0.6-0.7,1.3-1.4,1.9-2.2c0.6-0.6,1.2-1.2,1.7-1.8c0.2-0.3,0.3-0.9,0.1-1.3c-0.1-0.3-0.6-0.7-0.9-0.6
		c-0.6,0.1-1.2,0.4-1.6,0.8c-0.9,0.8-1.6,1.8-2.4,2.7c-0.1,0-0.2-0.1-0.3-0.1c0.1-1.3-0.6-2.6,0.5-3.8c0.2-0.2,0.3-0.5,0.2-0.7
		c-0.3-0.9,0.5-1.3,0.9-1.7c1.3-1.3,2.7-2.6,3.9-4c0.7-0.8,0.3-1.5-0.6-1.9c-0.8-0.4-1.1,0.1-1.6,0.5c-1.1,1.1-2.3,2.2-3.5,3.4
		c-0.1-0.8-0.3-1.3-0.3-1.8c0-0.2,0.1-0.5,0.3-0.5c0.9-0.3,0.8-1.1,1.1-1.8c0.1-0.3,0.2-0.6,0.4-0.8c1-1.2,2-2.3,3-3.4
		c0.6-0.7,0.5-1.5-0.2-1.9c-0.6-0.4-1.6-0.2-2.1,0.3c-0.7,0.9-1.5,1.7-2.4,2.8c0.1-1.3-0.1-2.4,0.7-3.4c0.7-0.8,1.2-1.6,1.7-2.5
		c0-0.1,0.1-0.2,0.2-0.2c0.8-0.5,0.8-1.7,1.9-2c0.1,0,0.1-0.2,0.2-0.3c0.3-0.4,0.6-0.8,0.8-1.3c0.3-0.6,0.2-1.1-0.3-1.5
		c-0.7-0.5-1.5-0.6-1.8-0.2c-0.4,0.5-0.8,1-1.2,1.5c-0.6,0.7-1.3,1.4-1.9,2.1c-0.1,0-0.1-0.1-0.2-0.1c0.1-1.4-0.1-2.9,1.2-3.9
		c0.2-0.2,0.4-0.4,0.5-0.6c0.9-1.3,1.9-2.6,2.8-3.9c0.2-0.3,0.6-0.4,0.8-0.6c0.3-0.5,0.4-1.2-0.1-1.6c-0.8-0.6-1.6-0.7-2-0.2
		c-0.3,0.4-0.6,0.7-0.9,1.1c-0.6,0.7-1.2,1.3-1.9,2.1c-0.1-0.5-0.1-0.7-0.1-1c-0.1-1.3,0-1.5,1.2-1.8c0.6-0.1,0.7-0.5,0.6-1
		c-0.2-0.7,0.1-1.1,0.6-1.6c0.8-0.8,1.6-1.6,2.4-2.4c1.5-1.4,1.4-2.3-0.7-3c-1.2,1.1-2.4,2.3-3.8,3.6c-0.1-1.3-0.1-2.3-0.1-3.2
		c0-0.3,0.1-0.7,0.2-1c0.8-1.1,1.5-2.3,2.4-3.3c0.7-0.8,1.5-1.4,2.3-2.1c0.5-0.5,0.6-1.4,0.2-1.8c-0.4-0.4-1.8-0.3-2.2,0.2
		c-0.9,0.9-1.8,1.8-2.7,2.7c-0.1,0.1-0.2,0.1-0.3,0.1c-0.1-1-0.1-2-0.2-3c-0.1-0.8,0.2-1.6,0.6-2.3c0.8-1.2,1.6-2.5,2.3-3.8
		c0.5-0.9,0.1-1.5-0.7-2c-0.7-0.5-1.2-0.3-1.8,0.4c0-0.3-0.1-0.5-0.1-0.6c0.5-0.9,1-1.8,1.6-2.7c0.2-0.4,0.7-0.7,0.7-1
		c-0.1-0.7-0.5-1.4-0.8-2.1c-0.4,0.2-0.7,0.5-0.8,0.4c-0.9-0.6-1,0.3-1.3,0.7c-0.2,0.3-0.2,0.7-0.4,1c-0.1,0.1-0.3,0.3-0.4,0.3
		c-0.1,0-0.3-0.2-0.3-0.3c-0.2-1-0.3-2-0.5-3.1c0-0.1,0-0.3,0.1-0.4c0.6-0.7,1.2-1.3,1.8-1.9c0.7-0.7,0.7-1.5,0.1-2.2
		c-0.5-0.5-1.5-0.5-2.1,0.1c-0.3,0.3-0.5,0.6-0.8,1c-0.5-0.9-1.1-1.7-1.4-2.6c-0.2-0.4-0.2-1.1,0-1.5
		C132.9,300,133.5,299.2,133.1,298.1z"/>
	<path class="st2" d="M555.3,314.6c1.2,0.1,1.7-0.3,2.1-1.3c0.6-1.7,2.2-2.7,3.5-4c0.5-0.5,1-0.8,0.9-1.6c-0.1-0.8-0.4-1.1-1.1-0.9
		c-0.5,0.2-1,0.5-1.3,0.8c-1.3,1.3-2.5,2.6-4,4.1c-0.1-0.7-0.2-1.2-0.3-1.8c1-0.4,1.4-1.2,1.9-2.2c0.8-1.6,2.1-3,3.4-4.2
		c0.4-0.4,0.7-0.8,1-1.2c-1.6-1.5-2.2-1.4-3.2,0.3c-0.7,1.1-1.6,2.1-2.6,3.3c-0.9-1.4-0.1-2.5-0.5-3.6c0.8,0,1.5,0.1,2-0.1
		c0.5-0.2,0.6-0.9,1-1.4c1.3-1.5,2.6-3,4-4.4c0.9-0.9,0.9-1.8-0.2-2.3c-0.7-0.3-1.2,0.1-1.5,0.6c-0.8,1.3-2,2.2-3.2,3.2
		c-0.4,0.3-0.9,0.6-1.6,1.1c0.1-1,0.2-1.7,0.3-2.6c1.4,0.3,2-0.2,2.5-1.5c0.6-1.5,1.9-2.5,3.2-3.3c1.1-0.7,1.3-1.2,0.8-1.8
		c-0.5-0.6-1.2-0.7-2.1,0c-1.2,1-2.4,2.1-3.7,3.2c-0.2-1.1,0.1-2.1,0.4-3.1c0-0.1,0.1-0.4,0.2-0.4c1.2-0.3,1.8-1.2,2.3-2.2
		c1.1-2,3-3.2,4.5-4.8c0.4-0.4,0.9-0.7,1.4-1.1c0.8-0.7,1-1.2,0.5-1.7c-0.8-0.8-1.6-0.8-2.3,0c-1.6,1.7-3.3,3.4-4.9,5.1
		c-0.1,0.1-0.3,0.2-0.8,0.5c0.2-1,0.4-1.8,0.6-2.6c0.1-0.2,0.2-0.5,0.3-0.5c1.2-0.3,1.4-1.5,2.1-2.3c1-1.1,2.1-2.1,3.5-2.8
		c0.3-0.2,0.8-0.3,0.9-0.6c0.9-2.1,2.9-3,4.4-4.3c0.3-0.2,0.6-0.4,0.9-0.6c1.3-1,1.2-1.8-0.2-2.5c-0.2-0.1-0.5-0.2-0.8-0.4
		c-2.1,3.2-5,5-7.9,7c-0.1-0.1-0.2-0.2-0.3-0.3c0.7-0.8,1.4-1.7,2.2-2.4c1.4-1.3,3-2.5,4.5-3.6c2.1-1.5,4.6-1.7,7-2
		c6-0.8,12.1-0.5,18.1,0.1c3.5,0.3,7.1,0.4,10.6,0.8c3.9,0.4,7.4,1.6,10.1,4.7c2,2.3,3.8,4.7,4.9,7.5c0.7,1.9,1,3.9,1.3,5.9
		c0.5,2.9,0.9,5.9,1.3,8.9c0.2,1.8,0.4,3.6,0.5,5.4c0.2,2.1,0.4,4.2,0.5,6.2c0.2,3.7,0.5,7.5-0.4,11.2c-0.2,0.9-0.6,1.7-1.6,2.1
		c-1,0.4-2.1,0.7-3.2,0.7c-1.7,0-3.4,0.1-5.1,0.2c-0.9,0-1.8,0.2-2.7-0.4c0.8-1.1,1.6-2.2,2.4-3.2c-0.6-1.6-1.4-1.8-2.6-0.4
		c-0.5,0.6-1,1.2-1.6,1.9c-1.2-1.4-0.4-2.5,0.2-3.4c0.8-1.2,1.9-2.2,2.9-3.4c0-0.1,0.1-0.2,0-0.3c-0.5-1.8-1.1-2-2.4-0.8
		c-0.7,0.6-1.4,1.3-2.2,2c-0.5-0.9-0.6-1.6,0.1-2.4c1.1-1.4,2.1-2.9,3.3-4.7c0,0.3,0,0.1,0,0c-0.6-1.9-1.3-2.1-2.6-0.6
		c-0.2,0.2-0.4,0.5-0.6,0.7c-0.4,0.4-0.7,0.7-1.4,1.4c0.2-1.4,0.3-2.5,0.4-3.7c0.4-0.3,0.9-0.7,1.4-1.2c0.4-0.4,1-0.7,1.1-1.1
		c0.2-0.5,0.1-1.2-0.1-1.6c-0.4-0.6-1.1-0.4-1.5,0.1c-0.7,0.8-1.4,1.6-2.2,2.4c-0.5-0.5-0.7-1.2-0.5-1.6c0.5-1.1,0.6-2.5,1.7-3.3
		c0.3-0.2,0.5-0.6,0.7-0.8c0.5-0.6,0.4-1.6-0.2-2c-0.7-0.5-1.9-0.2-2.2,0.4c-0.2,0.4-0.4,0.8-0.9,1.6c-0.3-1.1-0.5-1.7-0.7-2.4
		c-0.1-0.2,0-0.5-0.1-0.6c-0.9-1-0.8-1.7,0.3-2.5c0.5-0.4,0.8-1,1.2-1.5c0.6-0.9,0.6-1.6,0-1.9c-0.6-0.3-1.5,0.1-1.9,0.8
		c-0.3,0.5-0.5,0.9-0.8,1.4c-0.1,0.2-0.3,0.3-0.3,0.3c-1.2-1-2.2-2-3.4-2.8c-2.5-1.7-5.3-2.1-8.1-1.1c-1.7,0.6-2.8,1.9-3.9,3.3
		c-1.8,2.3-3,4.9-3.5,7.7c-0.3,1.8-0.4,3.7-0.5,5.6c-0.2,3.6-0.3,7.2-0.3,10.8c0,5.2,0.5,10.4,2.8,15.2c0.1,0.2,0.3,0.5,0.4,0.7
		c0.9,1.6,1.9,3.1,2.7,4.7c0.3,0.6,0.7,1.1,1.5,1.3c3.1,1,6.1,2.1,9.2,3c2.5,0.8,5.1,1.5,7.6,2.2c4.6,1.4,8.6,3.7,12.3,6.7
		c2.2,1.8,4.4,3.6,6.5,5.5c1.6,1.5,2.6,3.4,3.1,5.5c0.5,2,1.2,4,1.6,6.1c0.3,1.4,0.4,2.9,0.5,4.3c0.2,3.3,0.3,6.6,0.4,10
		c0.1,2.2,0.1,4.5,0,6.7c-0.2,4.7-0.7,9.4-0.9,14.1c-0.1,2.1,0.1,4.2,0,6.3c-0.2,3.8-0.5,7.7-0.9,11.5c-0.3,2.7-0.7,5.3-1,8
		c-0.3,2.3-1.3,4.4-2.5,6.3c-1.1,1.8-2.2,3.7-4.2,5c-0.2-0.2-0.4-0.4-0.6-0.6c-0.5-0.4-1.1-0.4-1.5,0.2c-0.6,0.8-1.3,1.5-1.8,2.3
		c-0.8,1.3-1.9,2.2-3.4,2.5c-0.3,0.1-0.7,0.3-1.2,0.5c0.4-0.8,0.7-1.3,0.9-1.9c0.2-0.6,0.1-1-0.5-1.4c-0.6-0.3-1-0.2-1.4,0.3
		c-1.1,1.3-2.1,2.7-3.2,3.9c-0.3,0.3-0.7,0.6-1.2,0.8c-1,0.3-2,0.5-3.2,0.9c0.4-0.5,0.7-0.8,0.9-1.2c0.2-0.5,0.4-1,0.5-1.5
		c0-0.8-0.9-1.2-1.5-0.7c-1.2,1.1-2.7,1.8-3.4,3.4c-0.5,1-1.4,1.2-2.3,1.2c-1.4,0-2.8-0.2-4.4-0.3c0.3-0.5,0.5-0.8,0.8-1.1
		c0.4-0.5,0.8-1,1.2-1.5c0.5-0.5,0.2-1-0.1-1.4c-0.4-0.5-0.9-0.3-1.3,0c-0.7,0.6-1.4,1.4-2.1,2c-0.6,0.6-1.2,1.2-1.8,1.7
		c-0.2,0.2-0.6,0.2-0.9,0.2c-0.6,0-1.3-0.1-2.2-0.2c0.4-0.6,0.7-1,1-1.5c0.2-0.2,0.5-0.4,0.5-0.6c0.1-0.6,0.6-1.3-0.1-1.8
		c-0.6-0.4-1.3-0.1-1.7,0.3c-0.8,0.8-1.6,1.7-2.4,2.6c-0.5,0.6-1,0.8-1.7,0.7c-1-0.1-2,0.1-3-0.7c0.8-0.5,1.5-1.1,1.3-2.1
		c-0.1-0.4-0.3-0.8-0.6-1c-0.2-0.1-0.7,0.1-1,0.3c-0.7,0.5-1.3,1.1-1.8,1.8c-0.6,0.9-1.4,1.1-2.4,0.9c-1.4-0.3-2.9-0.1-4.3-1.1
		c0.5-0.6,1-1.2,1.5-1.8c0.3-0.3,0.5-0.7,0.7-1.1c0.3-0.6,0.2-1.2-0.3-1.6c-0.5-0.3-1.1-0.3-1.6,0.3c-1.1,1.3-2.2,2.5-3.4,3.9
		c-1.5-0.7-3.1-1.5-4.3-3.1c1.1-0.5,2.1-0.6,2.5-1.7c-0.1-0.2-0.3-0.4-0.5-0.8c0.7-0.7,1.3-1.3,2-2c0.4-0.4,0.8-0.8,1-1.2
		c0.1-0.3,0-0.8-0.2-1.2c-0.3-0.5-0.8-0.4-1.1-0.1c-1.2,1-2.4,2.1-3.6,3.2c-0.4,0.3-0.7,0.7-1.3,1.3c-0.2-0.8-0.3-1.3-0.4-1.9
		c0.7-0.3,1.1-0.9,1.4-1.6c0.5-1.1,1.5-2,2.3-2.9c0.3-0.4,0.6-0.7,0.9-1.1c0.3-0.4,0.7-0.8,0.4-1.4c-0.3-0.7-0.8-0.9-1.3-0.8
		c-1.5,1.5-2.9,2.9-4.5,4.5c-0.4-1-0.7-1.7,0.3-2.2c0.1-0.1,0.3-0.3,0.3-0.3c-0.5-1.4,1-1.7,1.5-2.5c0.6-1,1.6-1.7,2.3-2.6
		c0.3-0.4,0.5-1,0.5-1.4c-0.1-0.9-1.1-1.2-1.7-0.6c-0.6,0.7-1.1,1.4-1.7,2.1c-0.7,0.7-1.4,1.4-2.5,2.3c-0.1-1.1-0.3-1.8-0.3-2.5
		c0-0.3,0.2-0.7,0.4-0.8c0.9-0.3,1.1-1.1,1.6-1.7c1.2-1.7,2.4-3.4,3.6-5c0.2-0.3,0.5-0.6,0.4-0.8c-0.1-0.4-0.3-0.9-0.7-1.1
		c-0.2-0.1-0.8,0-1.1,0.3c-0.3,0.2-0.5,0.7-0.7,1c-1.2,1.4-2.4,2.9-3.6,4.4c-0.6-1.4-0.5-1.6,0.4-2.5c0.3-0.3,0.3-0.8,0.4-1.3
		c0.2-0.5,0.2-1.4,0.6-1.6c1.3-0.7,1.7-2.2,2.7-3.1c0.2-0.2,0.4-0.4,0.5-0.6c0.4-0.7,0.4-1.7-0.1-1.9c-0.7-0.4-1.3,0.1-1.7,0.6
		c-0.9,0.9-1.7,1.9-2.6,3c-0.6-0.7-0.3-1.4-0.4-2.1c0-0.7-0.1-1.3,0.8-1.5c0.1,0,0.2-0.3,0.3-0.5c0.6-1.1,1.1-2.2,2.1-3
		c0.5-0.4,0.7-1.2,1-1.8c-0.1-0.2-0.1-0.4-0.2-0.5c-0.9-1.4-1.8-1.3-2.5,0.2c-0.4,0.8-0.9,1.6-1.8,2.2c-0.1-1.1-0.1-2.1-0.2-3
		c0.7-0.2,1.3-0.3,1.9-0.6c0.3-0.1,0.6-0.5,0.7-0.8c0.3-1.7,1.4-2.8,2.8-3.7c0.4-0.3,0.8-0.8,0.9-1.2c0-0.4-0.3-1.1-0.7-1.3
		c-0.5-0.3-1.1,0-1.6,0.5c-0.5,0.6-0.9,1.3-1.5,1.9c-0.7,0.7-1.6,1.4-2.4,2.2c-0.9-2.1-0.2-3.9,1.1-5.4c1.1-1.2,2.3-2.4,3.5-3.5
		c0.6-0.5,0.7-0.9,0.3-1.5c-0.4-0.5-1.1-0.5-1.7,0c-0.9,0.8-1.8,1.6-2.7,2.3c-0.3,0.3-0.7,0.4-1.3,0.7c0-1.2,0-2.2,0.1-3.2
		c0.1-1.7,1.6-2.6,2.4-3.9c0.5-0.9,1.7-1.4,1.6-2.7c-1.4-1.4-1.5-1.4-2.9,0.5c0-1.6,1.3-3.1,3-3.4c1.2-0.2,2.4-0.2,3.5-0.3
		c3.1-0.3,6.2-0.7,9.2-1.1c0.6-0.1,1.2-0.2,1.8-0.3c2-0.3,3.3,0.9,3.8,2.8c0.6,2.8,0,5.7-0.2,8.5c-0.2,3-0.7,6-0.8,9
		c-0.2,4.9-0.4,9.8-0.4,14.8c0,2.6,0.8,5,2.6,7.1c1.9,2.3,4.2,4,6.8,5.3c3.6,1.8,7.4,1.9,11-0.1c0.2-0.1,0.4-0.2,0.6-0.4
		c0.5,0.7,1.1,0.5,1.8,0.3c1.5-0.5,2.8-1.5,4.5-1.7c0.3,0,0.7-0.3,0.9-0.6c0.2-0.4,0.5-0.9,0.4-1.3c0-0.2-0.6-0.4-1-0.6
		c-0.2-0.1-0.5-0.1-1-0.1c0.6-0.6,1-1,1.5-1.5c0.4-0.4,0.8-0.7,1.2-1.1c0.6-0.7,0.7-1.5,0.2-2c-0.5-0.4-1.7-0.3-2.2,0.3
		c-0.3,0.3-0.6,0.7-1,1.1c-0.4-1.7,0.8-3.3,4.8-6.5c0-0.6-0.1-1.4-0.8-1.5c-0.6-0.1-1.3-0.1-1.9,0.6c-0.5,0.7-1.2,1.2-1.9,1.9
		c-0.5-0.4-0.6-0.8-0.1-1.4c0.4-0.4,0.6-1,1-1.4c0.6-0.8,1.3-1.5,2-2.3c0.4-0.5,0.8-1,1.2-1.5c0.8-1.2,0.7-1.3-0.7-2.4
		c-0.7,0.7-1.4,1.3-2.1,2c-0.8-0.4-1-1-0.5-1.6c0.7-0.9,1.4-1.9,2.2-2.8c0.1-0.1,0.3-0.2,0.4-0.3c0.9-0.8,1.1-1.5,0.5-2.1
		c-0.5-0.5-1.6-0.4-2.3,0.3c-0.3,0.3-0.5,0.7-0.8,1c-0.3,0.3-0.6,0.6-1.1,1.1c0.1-1.9,0-3.4,1.1-4.8c0.5-0.6,1-1.4,1.6-1.9
		c0.4-0.3,0.5-0.9,0.8-1.4c0.3-0.5,0.1-1-0.3-1.3c-0.5-0.4-1-0.2-1.5,0.2c-0.6,0.6-1.1,1.2-1.7,1.8c-0.7-1.9-0.7-2.5,0.4-4.1
		c0.5-0.8,1.2-1.5,1.8-2.2c0.3-0.4,0.7-0.8,1-1.3c0.5-0.9,0.5-1.5-0.1-1.9c-0.7-0.4-1.2,0-1.7,0.5c-0.3,0.4-0.6,0.8-0.9,1.1
		c-0.3,0.4-0.6,0.7-1.1,1.2c-0.3-1.5-0.6-2.7,0.4-3.8c0.8-0.9,1.4-2,2.2-3c0.6-0.7,0.8-1.5,0.6-2.4c-1.5-0.6-1.8-0.5-2.4,0.8
		c-0.3,0.6-0.7,1.3-1,1.9c-0.1,0-0.2-0.1-0.3-0.1c-0.1-1.5-0.6-3-0.3-4.4c0.2-1.1,1.1-2.2,1.7-3.2c0.5-0.8,0.7-1.5,0.1-2.4
		c-1.3,0-1.9,1-2.8,1.8c-0.6-0.9-1.1-1.7-1.7-2.5c0.4-0.5,0.8-0.9,1-1.4c0.2-0.4,0.4-0.9,0.4-1.3c-0.1-1-1-1.3-1.7-0.7
		c-0.2,0.1-0.3,0.3-0.4,0.5c-1,1.1-1.3,1.1-2.3,0.1c-0.2-0.2-0.4-0.5-0.7-0.8c0.6-0.5,1.2-1.1,1.8-1.6c0.2-0.2,0.5-0.5,0.6-0.7
		c0.4-0.6,0.3-1.6-0.2-1.9c-0.6-0.4-1.2-0.2-1.7,0.3c-0.7,0.8-1.4,1.6-2.2,2.5c-0.6-0.4-1.2-0.8-1.8-1.2c0.4-1,0.8-1.8,1.1-2.7
		c0.1-0.3-0.1-0.7-0.2-1.1c-1.9-0.4-2.3,1.3-3.2,2.3c-1.3-0.6-2.7-1.2-4.3-1.9c0.6-0.6,1.1-1,1.6-1.4c0.2-0.1,0.4-0.2,0.5-0.3
		c0.7-0.6,0.9-1.5,0.6-2c-0.4-0.6-1-0.6-2,0.1c-0.7,0.5-1.3,1.1-2,1.7c-0.9,0.9-1.9,1.2-3.1,0.3c0.2-0.3,0.3-0.6,0.5-0.8
		c0.5-0.5,1.1-0.9,1.5-1.4c0.2-0.2,0.4-0.6,0.4-1c0.1-0.5,0.2-1.1-0.4-1.2c-0.4-0.1-1,0-1.3,0.3c-0.7,0.5-1.5,1.1-2.1,1.8
		c-1.2,1.4-2.4,1.3-3.8,0.4c-0.5-1,0.4-1.7,0.8-2.4c0.2-0.3,0.6-0.6,0.6-0.9c0-0.4-0.1-1-0.3-1.3c-0.2-0.2-0.8-0.1-1.1,0
		c-0.3,0.1-0.7,0.4-0.9,0.6c-0.8,0.9-1.5,1.8-2.3,2.7c-0.7-0.2-1.4-0.5-2.1-0.7c0.3-1.6,1-2.8,1.9-4c0.8-1.1,0.7-1.3-0.2-2.3
		c-1.3,0.2-1.6,1.4-2.4,2.2c-0.7,0.8-2.1,1.1-1.9,2.7c-0.9-0.5-1.6-0.9-2.2-1.3c0-1.7,1.3-2.5,2-3.5c0.4-0.6,0.9-1.2,1.2-1.9
		c0.1-0.3,0-1.1-0.2-1.1c-0.5-0.1-1,0-1.5,0.1c-0.1,0-0.2,0.3-0.3,0.4c-1.1,1.2-2.3,2.4-3.5,3.7c-0.4-0.3-0.6-0.5-0.9-0.7
		c1.3-1.7,2.5-3.4,3.8-5.1c0.1-0.1,0.2-0.3,0.3-0.4c0.5-0.9,0.4-1.7-0.2-2c-0.5-0.3-1,0.1-1.6,0.9c-1,1.4-2.2,2.5-3.5,3.6
		c-2-2.2-2.3-3.8-1.2-5.6c0.5-0.7,1-1.4,1.7-1.9c0.9-0.6,1.1-1.3,0.8-2.3c-1.4-0.4-1.6-0.3-2.4,0.8c-0.6,0.9-1.3,1.7-2.2,2.8
		c-0.4-1.1-0.7-1.9-1-2.8c0.9-0.3,1.6-0.6,1.5-1.7c0-0.6,0.9-1.3,1.5-1.8c0.9-0.7,1.2-1.6,1-2.8c-2.6-0.3-3,2.3-4.8,3.4
		c-0.2-0.5-0.4-0.9-0.6-1.5c0.8-0.3,1.1-0.8,1.4-1.6c0.6-1.2,1.6-2.3,2.5-3.3c0.9-0.9,1-1.2,0.6-2.4c-2.2,0.4-3.2,2.5-5.1,3.9
		c-0.1-1-0.2-1.8-0.2-2.6c0.8-0.2,1.5-0.4,2.3-0.6c0-1.3,0.3-2.1,1.4-2.8c1.1-0.8,2.1-2,1.9-3.7c-0.9-0.8-1.5-0.1-2.1,0.4
		c-0.7,0.7-1.3,1.5-1.9,2.2c-0.4,0.4-0.8,0.7-1.4,1.2c-0.3-0.8-0.4-1.4-0.7-2c0.7-0.2,1.3-0.3,1.9-0.5c0.2-1.4,1-2.4,2.2-3.3
		c0.8-0.6,1.4-1.3,2.1-2c0.4-0.5,0.7-1,0.2-1.6c-0.5-0.7-1.1-0.5-1.7,0c-1.2,1.1-2.4,2.1-3.6,3.2c-0.1,0.1-0.2,0.3-0.3,0.4
		c-0.7,0.6-1.2,0.4-1.3-0.5c0-0.3,0-0.5,0-0.8C555.1,315.3,555.2,315.1,555.3,314.6z"/>
	<path class="st2" d="M413.1,243.9c0.7-0.6,1.3-1,1.7-1.5c1-1.3,2.1-2.5,3.6-3.1c0.2-0.1,0.4-0.3,0.6-0.4c0.6-0.5,0.7-1.6,0.3-2.1
		c-0.5-0.6-1.4-0.8-2.1-0.3c-1.2,0.8-2.2,1.7-3.4,2.5c-0.2,0.2-0.6,0.2-0.9,0.3c-0.4-2.8,0.4-3.9,2.9-5c2.2-0.9,4.5-1.2,6.8-1.5
		c4.5-0.6,9-1.1,13.5-1.6c0.9-0.1,1.9-0.1,2.9,0.1c1.9,0.4,2.8,1.8,3,3.6c0.2,2.3,0.2,4.7,0.4,7c0.3,4,0.8,8,1.2,12
		c0.6,6,1.2,12,1.7,18c0.4,5.3,0.7,10.6,1,15.8c0.1,1.3-0.1,2.6,0,4c0.2,3.9,0.4,7.7,0.8,11.6c0.3,2.9,0.9,5.8,2,8.6
		c1.2,2.8,2.4,5.7,2.5,8.9c0.1,1.3,1,2.2,2,2.3c1.3,0.1,2.6-0.7,3-2c0.4-1.3,0.7-2.6,0.9-4c0.2-1.6,0.9-2.6,2.5-3.1
		c1.1-0.4,2.5-0.8,2.2-2.6c-0.9-1.4-2.3,0-3.4-0.5c-0.1-1.2,0.1-2.1,1.2-2.8c1.4-0.9,2.6-1.9,4-2.8c1-0.7,1.3-1.5,0.6-2.8
		c-0.9,0.3-1.9,0.6-3.1,1.1c0.2-1.2,1-1.4,1.6-1.8c1.2-0.9,2.5-1.7,3.7-2.5c0.3-0.2,0.8-0.4,0.9-0.7c0.2-0.5,0.3-1.2,0.1-1.6
		c-0.2-0.6-0.9-0.7-1.5-0.4c-1,0.5-2.1,1.1-3.1,1.6c-0.6,0.3-1.2,0.7-1.8,1c-0.1-0.1-0.2-0.2-0.4-0.3c0.2-0.7,0.5-1.4,0.7-2.1
		c1.3-0.1,2.5-0.3,2.1-2c0-0.2,0.3-0.5,0.6-0.7c1-0.7,2-1.5,3.1-2c1.2-0.5,1.8-1.3,2.1-2.6c-1.7-1.6-2.9,0.9-4.9,0.7
		c0.8-0.7,1.2-1.3,1.8-1.7c1.5-1,3-2,4.6-2.9c1.1-0.7,1.1-0.7,1.7-2.2c-0.7-1-1.7-0.8-2.6-0.3c-1.4,0.8-2.7,1.6-4.1,2.4
		c-0.1,0.1-0.4,0.1-0.7,0.1c-0.2-1.1,0.5-2,0.8-2.9c0.4-1.1,1.1-1.4,2.1-1.7c0.8-0.2,1.6-0.6,2.2-1.2c1.5-1.4,3.6-2.3,4.4-4.4
		c-0.4-1.2-1.4-1-1.9-1.1c-1.7,1.2-3.1,2.1-4.7,3.3c0.1-1.5,0.4-2.3,1.6-3c1.8-1,3.3-2.4,5-3.7c0.9-0.7,0.4-1.5,0.2-2.3
		c-2-1-3,0.7-4.4,1.5c-0.4-1.7-0.2-2.5,1.1-3.3c0.9-0.6,1.9-1.1,2.8-1.7c0.5-0.4,1.1-0.8,1.3-1.4c0.2-0.3,0.1-1.1-0.2-1.4
		c-0.3-0.3-0.9-0.5-1.3-0.4c-0.6,0.1-1.1,0.5-1.7,0.8c-0.5-1.5-0.3-2.2,1.2-3.1c1.3-0.8,2.6-1.4,3.9-2.2c0.8-0.5,1.6-1.2,2.1-1.9
		c0.3-0.3,0.2-1.1-0.1-1.6c-0.3-0.6-0.9-0.6-1.5-0.2c-0.7,0.4-1.5,0.8-2.2,1.3c-0.6,0.4-1.3,0.8-2,1.4c0.1-1.7,0.5-2.9,2.2-3.4
		c1-0.3,1.7-1.3,2.6-1.9c0.9-0.6,1.9-1,2.8-1.6c1.4-0.8,1.5-1.6,0.6-3.1c-1.1,0.4-2.2,0.6-3.2,1.1c-1,0.4-1.9,1.1-3.1,1.7
		c0.1-0.7,0.2-1.2,0.2-1.8c0.8,0,1.6,0.1,2.1-0.8c0.9-1.4,2.6-1.7,4-2.2c0.7-0.3,1.4-0.4,2.1-0.6c0.7-0.2,1.6-0.4,1.3-1.5
		c-0.3-1-0.8-1.4-1.9-1c-1.7,0.5-3.3,1.2-4.9,1.8c-0.2,0.1-0.5,0.2-0.9,0.4c-0.3-1.3,0.5-2.1,1.1-2.9c0.7-0.9,1.5-1.5,2.7-1.7
		c3.3-0.7,6.7-0.3,10-0.3c1.7,0,3.3,0.2,5,0.3c3.3,0.3,4.1,2.5,3.7,5c-0.5,3.1-1.4,6.1-2.1,9.2c-0.8,3.5-1.7,7.1-2.5,10.6
		c-0.9,3.7-1.5,7.5-2.7,11.1c-1.3,3.9-2.2,7.8-3.2,11.7c-1,3.8-1.8,7.6-2.2,11.5c-0.1,1.4-0.7,2.7-1.1,4.1c-1.3,5.1-2.7,10.1-4,15.2
		c-1.4,5.6-2.6,11.2-3.9,16.8c-0.9,3.6-1.9,7.1-3,10.7c-2.1,6.7-4.2,13.5-7,20c-0.8,1.8-1.8,3.6-2.8,5.3c-1.3,2.5-2.2,5.1-1.9,8
		c0.4,5.3,0,10.6-0.5,15.9c-0.8,7.7-1.1,15.5-1.6,23.2c-0.3,4.6-0.4,9.3-0.5,14c-0.1,4.3-0.1,8.5-0.1,12.8c0,0.2-0.1,0.4-0.1,0.7
		c-0.4,0-0.7,0-1.1-0.1c-1-0.3-1.7,0-2.3,0.8c-0.5,0.7-1.2,1.4-1.7,2c-0.5,0.6-1,0.8-1.8,0c0.5-1.1,1.1-2.2,1.7-3.3
		c0.3-0.7,0.9-1.6,0-2.1c-0.9-0.6-1.6,0.2-2.1,0.9c-0.7,0.9-1.4,1.9-2.1,2.8c-0.4,0.5-0.8,1-1.1,1.5c-0.9-0.2-1.7-0.4-2.8-0.6
		c0.5-0.4,0.8-0.7,1.1-0.9c0.6-0.5,1.3-1,1.8-1.7c0.7-0.9,0.5-1.7-0.3-2.4c-0.8-0.7-1.8-0.7-2.4,0.1c-0.8,1.1-2,1.6-2.7,3
		c-0.8,1.7-1.3,1.7-3.4,1.2c-1.1-0.3-2.3-0.4-3.2-1.4c-0.3-0.3-0.5-0.7-0.7-1.2c1.2-0.9,2.3-1.8,3.5-2.6c0.7-0.5,1-1.1,0.5-1.8
		c-0.4-0.7-1.1-1-1.8-0.5c-0.9,0.5-1.7,1.1-2.9,1.8c0-1.1-0.1-2-0.1-2.8c1.7-1.1,3.3-2.1,4.8-3.2c1.2-0.9,1.3-1.9,0.5-3.5
		c-1.2-0.2-2.1,0.1-2.9,1.2c-0.4,0.6-1.1,0.9-1.8,1.2c0.7-3.2,3.5-4.4,5.8-6c0-0.7,0-1.4,0-2c-1.7-0.8-2-0.7-3.2,0.4
		c-0.7,0.7-1.6,1.2-2.7,2c0.2-2.1,0.3-3.9,0.4-5.6c0.9-0.2,1.8-0.1,1.9-1.4c0-0.3,0.5-0.7,0.8-1c0.8-0.7,1.6-1.4,2.4-2.2
		c0.9-0.9,1.1-2.1,0.5-2.7c-0.7-0.6-1.9-0.3-2.7,0.5c-0.5,0.6-1.1,1.1-1.6,1.6c-0.2,0.2-0.4,0.2-1,0.5c0.1-1.8,0.3-3.4,0.4-4.9
		c0.1,0,0.2,0.1,0.3,0.1c0.4-0.7,0.8-1.4,1.3-2c1.1-1.1,2.4-2,3.6-3c0.3-0.3,0.9-0.6,0.9-0.9c0.1-0.7,0.1-1.5-0.3-2
		c-0.5-0.7-1.3-0.2-1.9,0.2c-0.9,0.7-1.9,1.3-2.8,2c-1-2.4-0.4-5.5,1.3-7.2c1-1,1.9-2,2.7-3c0.6-0.7,0.5-1.9-0.1-2.3
		c-0.6-0.4-1.9-0.3-2.4,0.2c-0.4,0.4-0.7,0.9-1.3,1.7c0-1.6-0.1-2.8,0-3.9c0-0.4,0.5-0.9,0.9-1.1c1.3-0.9,2.6-1.7,3.8-2.4
		c-0.2-2.2-0.3-2.1-1.6-2.5c-1.4-0.4-1.6,1.2-2.6,1.3c-0.7-2.7-0.3-3.9,1.9-5.5c0.6-0.4,1.2-0.8,1.8-1.1c1.8-1.1,1.9-1.6,0.3-3.4
		c-1.2,0.5-2.6,1.1-4,1.7c-0.2-1.7-0.3-3.2-0.5-4.7c-0.2-1.2,0.2-2.1,1.2-2.9c0.8-0.6,1.5-1.4,2.3-2c0.9-0.6,1.4-1.5,0.9-2.3
		c-0.3-0.6-1.3-0.8-2-1.3c-1,1.1-1.5,2.5-3.2,2.8c-0.3-1.7-0.6-3.4-0.9-5c-0.1-0.9,0.4-1.4,1-2c1.2-1.1,2.4-2.4,3.6-3.5
		c0.6-0.5,0.7-1.2,0.4-1.7c-0.3-0.5-1-0.8-1.5-1c-0.3-0.1-0.8,0.3-1.1,0.6c-0.9,0.9-1.7,1.8-2.8,3.1c-0.7-2.5-1.3-4.6-1-6.8
		c0.1-1.4,1.3-2.3,2.4-3.2c0.7-0.6,1.5-1.3,2.1-2c0.3-0.4,0.4-1,0.6-1.5c-1.7-1.2-2.2-1.2-3.5,0.1c-0.3,0.3-0.5,0.6-0.8,0.8
		c-0.5,0.4-1,0.8-1.6,1.3c-1-1.2-0.6-2.8-1.1-4c-0.2-0.5-0.1-1-0.3-1.5c-0.5-1.5,0.1-2.6,1.2-3.6c0.9-0.9,1.8-1.8,2.6-2.8
		c0.8-1,0.8-2,0.2-2.5c-0.5-0.5-2,0-2.7,0.8c-0.2,0.3-0.5,0.6-0.7,0.9c-0.5,0.4-1,0.6-1.6,1.1c-0.5-1.9-1-3.6-1.3-5.3
		c-0.1-0.3,0.2-0.9,0.5-1.2c1.4-1.5,2.8-2.9,4.2-4.3c0.1-0.1,0.2-0.2,0.3-0.3c0.7-0.8,0.8-1.8,0.2-2.4c-0.5-0.5-1.9-0.3-2.5,0.3
		c-1,1-2.1,2-3.2,3c-1.5-1.7-1.5-3.4-0.6-5.2c0.6-1.2,1.5-2.1,2.6-2.7c0.6-0.3,1.1-0.7,1-1.5c-0.1-0.8-0.5-1.3-1.3-1.4
		c-0.3,0-0.5-0.1-0.7-0.2c-1.1,0.8-2.1,1.7-3.2,2.5c-0.6-1.7-1.1-3.1-1.5-4.6c-0.3-1,0.3-1.6,0.9-2.2c0.6-0.6,1.3-1.1,2-1.6
		c0.8-0.7,1-1.8,0.5-2.4c-0.6-0.8-2-0.9-2.8-0.2c-0.5,0.4-0.9,0.9-1.4,1.4c-1.8-2.4-1.4-4.2,1-5.8c1.1-0.7,2.5-1.2,2.7-2.8
		c-1.3-1.5-1.8-1.6-3.3-0.5c-0.2,0.1-0.3,0.2-0.5,0.3c-0.6,0.4-1.3,0.9-1.9,1.3c-1.8-1.2-2-4.8-1.5-6.3c0.1-0.2,0.4-0.3,0.6-0.5
		c1.4-1,2.7-1.9,4.1-3c0.7-0.5,0.6-1.3-0.2-2.5c-2.4,0-3.8,2.1-5.8,2.9c-1.5-2.2-1-4,1.1-5.4c1.3-0.9,2.6-1.9,3.8-3
		c0.3-0.3,0.3-1.2,0.1-1.6c-0.7-1.1-2.3-1.3-3.1-0.3c-1,1.2-2.2,2.2-3.9,3.1c-0.3-1-0.8-1.9-0.7-2.7c0.1-0.8,0-1.5-0.3-2.2
		c-0.4-0.7-0.2-1.2,0.4-1.7c1-0.8,1.9-1.7,2.9-2.6c0.4-0.3,0.8-0.7,1-1.1c0.3-0.7,0.7-1.5-0.2-2.1c-0.7-0.4-1.7-0.3-2.3,0.3
		c-0.8,0.9-1.7,1.8-2.7,2.8c-0.4-1.2-0.5-2-0.4-3.1c0.3-2,1.4-3,3.1-3.8c0.6-0.3,1.1-0.9,1.7-1.3c1.3-1,1.3-1.9-0.2-2.6
		c-0.3-0.2-0.7-0.2-1-0.3c-1.5,1.2-2.9,2.3-4.4,3.4c-1-1.6-0.6-3.2-0.7-4.7c0-0.3,0.4-0.6,0.7-0.8c1-0.9,2-1.9,3.1-2.6
		c0.8-0.5,0.9-1.1,0.7-1.8c-0.1-0.4-0.5-0.9-0.9-1.1c-0.7-0.3-1.4,0.1-1.9,0.6c-0.7,0.8-1.3,1.6-2.2,2.6c-0.3-0.9-0.5-1.4-0.7-2.1
		c0.6-0.5,1.7-0.8,1.4-2.1c-0.1-0.3,0.4-0.9,0.8-1.2c0.7-0.6,1.4-1.1,2.1-1.7c0.9-0.8,1.1-1.8,0.5-2.5c-0.6-0.6-1.7-0.5-2.6,0.2
		c-0.9,0.8-1.8,1.6-2.8,2.4c-0.2-0.3-0.3-0.5-0.3-0.7c-0.1-1.1,1-3.5,1.9-4.2c0.8-0.6,1.6-1.3,2.5-1.9c1.7-1.1,1.8-1.5,0.4-3.2
		c-2.5-0.1-3.6,2.3-5.6,3.3C413.3,244.8,413.2,244.2,413.1,243.9z"/>
	<path class="st2" d="M411.4,444.2c0.4-1.5,0.8-2.9,1.2-4.3c-1.3-0.7-1.9-0.1-2.4,0.6c-0.8,1-1.4,2-2.2,2.9c-0.5,0.6-1,1.3-2.2,0.7
		c0.4-0.6,0.8-1.1,1.2-1.7c-0.2-0.6-0.5-1.3-0.9-2.2c-0.9,0.6-1.8,0.9-2.4,1.6c-1.8,2-4,2.6-6.5,2.5c-1.4-0.1-2.8-0.2-4.6-0.4
		c1.2-1.3,2.2-2.3,3.2-3.3c-1-1.6-1.5-1.9-2.3-1.3c-1.9,1.5-3.6,3-5.6,4.7c-0.5-0.1-1.1-0.1-1.9-0.2c0-0.2,0-0.5,0.1-0.6
		c0.4-0.7,0.4-1.4-0.2-1.7c-0.5-0.3-1.4-0.3-2-0.1c-0.9,0.3-1.6,1-2.4,1.5c-2.1,1.1-2.7,1.2-5,0.4c0.2-1,0.5-2,0.7-2.9
		c-1.3-1.1-2.3-1.1-3.3-0.1c-0.4,0.4-0.9,0.5-1.2,0.9c-2.4,2.9-5.5,1.8-8.7,1.7c0.9-1.3,1.5-2.4,2.2-3.4c0.4-0.6,0.6-1.2,0.1-1.7
		c-0.6-0.6-1.4-0.4-2,0c-1.5,1.1-2.9,2.1-4.3,3.3c-2,1.8-2,1.8-4.4-0.2c0.4-0.3,0.7-0.7,1.1-0.9c1-0.7,2.1-1.3,3.1-2
		c1-0.7,2-1.4,3-2.1c1.5-1,1.7-1.5,1-3.5c-1.2-0.5-2.1,0.2-3,0.7c-1.7,1.1-3.4,2.1-5.2,3.2c-0.4,0.2-0.9,0.3-1.4,0.3
		c1.1-1,1.1-2.7,2.7-3.5c1.4-0.7,2.7-1.7,4-2.6c0.6-0.5,1.1-1.1,1.6-1.5c-1.2-2.3-1.2-2.2-3.2-1.2c-1.7,0.9-3.1,2.7-5.4,2.8
		c0-0.8,0-1.6,0-2.5c1.6-0.1,2.6-0.6,2.7-2.4c0-0.6,1-1.3,1.7-1.7c0.8-0.5,1.7-0.8,2.5-1.3c0.5-0.3,1.1-0.8,1.4-1.3
		c0.2-0.4,0.3-1.1,0.1-1.4c-0.3-0.4-0.9-0.6-1.4-0.6c-0.4,0-0.9,0.3-1.4,0.6c-1.6,1-3.3,2.1-5,3.2c-0.1-0.5-0.2-1-0.3-1.6
		c1.1-0.2,2-0.4,2.3-1.6c0.1-0.3,0.6-0.6,0.9-0.9c1.3-1.2,2.7-2.4,4-3.7c0.7-0.6,1.2-1.4,0.4-2.3c-0.5-0.6-1.8-0.6-2.6,0
		c-0.8,0.7-1.6,1.4-2.5,2.1c-0.5,0.4-1.1,0.8-1.7,1.2c-0.8-1.9-0.5-2.2,0.5-3.5c1.4-1.8,3.6-2.3,5.1-3.9c0.2-0.2,0.6-0.3,0.9-0.5
		c1.7-0.7,1.9-1.1,1.4-3.4c-3.1,0.1-5.6,1.9-8.2,3.6c-0.6-2.7,0.9-4.1,2.5-5.4c1.5-1.2,3.2-2.3,4.7-3.5c0.6-0.5,1.5-0.9,0.7-1.9
		c-0.5-0.7-1.8-0.9-2.5-0.4c-0.7,0.5-1.3,1.2-2,1.7c-0.9,0.6-1.9,1.2-3.2,2c0-1.3-0.1-2.2,0-3.2c0-0.4,0.4-0.7,0.6-1
		c0.2-0.2,0.5-0.4,0.6-0.6c0.3-2.9,2.8-3.3,4.8-4.3c0.4-0.2,1-0.4,1.4-0.7c1-0.9,0.9-1.8-0.4-2.3c-0.6-0.3-1.2-0.4-1.7-0.5
		c-1.7,0.9-3.2,1.7-4.7,2.5c-1-4.1,1.1-6.3,4.1-8c1.3-0.7,2.5-1.4,3.6-2.3c0.5-0.4,0.7-1.4,1-2.1c-0.7-0.7-1.3-1.1-2.3-0.6
		c-1.9,1.1-3.8,2-5.9,3.1c-0.1-1.1-0.2-1.9-0.1-2.7c0-0.4,0.5-1.1,0.7-1.1c1,0,1.2-0.7,1.7-1.3c0.9-1.1,2.1-2.1,3.3-2.6
		c1.5-0.6,2.1-1.9,3.2-2.8c-1-1.9-1.5-2.1-3.1-0.9c-1.6,1.2-3.3,2.4-5.3,2.9c0-1.7-0.1-3.4,0-5c0-0.3,0.4-0.8,0.7-1
		c2.2-1.5,4.5-2.9,6.7-4.3c0.2-0.1,0.5-0.2,0.6-0.3c0.3-0.7,0.8-1.5,0.6-2.1c-0.2-0.9-1.2-0.9-2-0.6c-0.9,0.4-1.9,0.8-2.8,1.2
		c-1,0.4-2,0.9-3.1,1.4c0-1.2,0-2.2,0-3c1-0.9,1.8-1.5,2.5-2.2c1.2-1.3,2.6-2.3,4.3-2.7c1-0.2,1.7-0.6,1.8-1.5
		c0-0.5-0.3-1.2-0.6-1.4c-0.7-0.5-1.4-0.7-2.3-0.1c-1.6,1-3.3,1.6-5.2,2.4c0-1.4,0-2.6,0-3.8c0-0.3,0-0.7,0.1-0.8
		c1.1-0.9,1.6-2.2,2.1-3.4c0.1-0.3,0.7-0.6,1.1-0.6c2.1,0,3.5-1.7,5.3-2.4c0.4-0.2,0.7-1.3,0.6-1.8c-0.1-0.4-0.9-0.7-1.5-0.9
		c-0.4-0.1-1,0.1-1.4,0.4c-1.3,0.7-2.6,1.5-4,2.2c-0.4,0.2-0.9,0.3-1.5,0.6c0-1.8,0-3.4-0.1-5c1.7-0.7,1.7-0.7,2-3
		c1.6-0.9,3.1-1.8,4.6-2.7c1-0.6,1.3-1.8,0.8-2.5c-0.5-0.7-1.6-0.8-2.5-0.2c-1.4,0.9-2.9,1.8-4.4,2.8c-1-4.8,0.9-7.5,4.8-9.6
		c0.5-0.3,1.1-0.4,1.6-0.6c1-0.3,1.2-0.9,0.9-2c-2.7-1.5-4.6,1.2-7.1,1.8c-0.1-1-0.3-1.9-0.2-2.8c0.1-0.9,0.4-1.7,1.4-2.2
		c1.4-0.7,2.8-1.5,4.1-2.4c0.6-0.4,1.2-0.9,1.4-1.5c0.2-0.4-0.1-1.3-0.4-1.5c-0.5-0.2-1.5-0.2-1.7,0.1c-1.1,1.7-3.1,2-4.7,3.5
		c0-2-0.1-3.6-0.1-5.1c0.5-0.2,1-0.2,1.3-0.5c1.2-1.4,2.8-2,4.6-2.2c0.1,0,0.1,0,0.2,0c1-0.3,1.7-1.3,1.5-2.3
		c-0.2-0.9-1.3-1.3-2.3-0.8c-1.4,0.6-2.7,1.4-4.1,2.1c-0.2,0.1-0.5,0.2-0.7,0.3c-1.2-2.5,0.5-4.2,1.4-6c0.6-1.1,1.5-2,2.9-2.3
		c1.1-0.3,1.5-1.1,1.2-2.1c-0.3-1-1.1-1.5-2.3-1c-1,0.4-2,1.2-2.9,1.7c-1.1-1.7-0.8-3.5,0.7-4.6c1.7-1.2,3.5-2.5,5.2-3.7
		c0.9-0.6,1.3-1.7,0.8-2.4c-0.4-0.7-1.6-0.7-2.6-0.1c-1.4,1-2.9,1.9-4.4,3c-1.1-1.6,0.2-3-0.5-4.3c2.1-1.6,4.1-3,6.1-4.5
		c0.5-0.4,1.2-0.7,1.5-1.2c0.3-0.5,0.3-1.2,0.4-1.8c-0.5-0.1-1.2-0.4-1.6-0.2c-1.6,0.8-3.2,1.7-4.7,2.6c-0.5,0.3-0.9,0.5-1.5,0.9
		c0-1.1,0-1.9,0-2.6c0.4-0.3,0.9-0.5,1.1-0.9c1.1-2.2,3.2-3,5.2-3.9c1-0.5,1.4-1.3,1.1-2c-0.3-0.8-1.7-1.1-2.7-0.6
		c-1.4,0.8-2.9,1.6-4.4,2.4c-0.6-2.9,0.2-4.8,2.8-5.9c0.6-0.3,1.1-0.7,1.6-1.1c0.8-0.6,1.6-1.1,2.6-1.9c0-0.5,0.1-1.4,0.2-2.5
		c-3-0.2-4.8,2-7.2,3.1c-0.5-1.6-0.1-2.9,0.4-4c1.4-0.9,2.6-1.6,3.8-2.3c1.1-0.6,2.3-1.1,3.5-1.7c0.1,0,0.1,0,0.2-0.1
		c1-0.4,1.8-1.6,1.5-2.3c-0.3-0.6-1.2-0.8-2.3-0.3c-2,1-4,2-6,3.1c-0.4,0.2-0.7,0.3-1.3,0.6c0-1.1,0.1-1.9,0.1-2.8
		c0.9-0.5,1.7-0.8,2.4-1.8c0.8-1.2,2.6-1.7,3.9-2.5c0.6-0.3,1.4-0.3,1.8-0.7c0.5-0.4,0.6-1.2,0.9-1.8c-0.6-0.2-1.2-0.6-1.7-0.5
		c-1.6,0.4-3.1,1.1-4.6,1.7c-0.7,0.3-1.3,0.6-2.1,1c0-1.4,0-2.5,0-3.4c0.8-0.7,1.4-1.2,2.1-1.6c1.4-1.1,2.8-2.2,4.3-3.2
		c1.4-0.9,1.6-1.2,0.8-3.2c-2.7,0.3-4.7,2.4-7.6,3.3c0.3-0.9,0.3-1.5,0.6-2c0.9-1.1,1.5-2.5,3-3c1.2-0.4,2.3-0.9,3.4-1.3
		c1.5-0.5,1.6-0.7,1.3-2.7c-2.9-0.7-5.2,1.4-8.1,2.1c-0.1-1.1-0.2-2.1-0.3-2.9c2.2-1.1,4.2-2.1,6.2-3.1c0.4-0.2,0.7-0.4,1.1-0.7
		c0.6-0.5,1.1-1.1,0.6-2.1c-0.5-0.9-1.3-0.8-2.1-0.6c-0.4,0.1-0.8,0.4-1.1,0.6c-1.3,0.7-2.7,1.3-4.3,2.2c-0.2-1.2-0.3-2.1-0.5-2.9
		c2.4-2.6,5.4-3.5,8.8-4.1c0.2-0.6,0.5-1.2,0.8-2.1c-3.3-1.2-6.1,0.5-9,1.4c-0.5-2,0-3.4,2-4.4c1.4-0.7,3-1.1,4.5-1.6
		c0.7-0.2,1.4-0.4,2.1-0.6c0.1-0.5,0.2-0.9,0.2-1.4c0-1.4-0.6-1.8-1.9-1.4c-1.8,0.7-3.5,1.5-5.3,2.2c-0.2,0.1-0.5,0.1-0.9,0.2
		c-0.1-1.3,0.7-2,1.6-2.4c1.5-0.6,3-1.2,4.5-1.6c3.2-0.7,6.4-1.1,9.6-1.8c3-0.6,6.1-0.4,9.1,0c1.1,0.2,2.1,0.7,2.7,1.7
		c0.5,0.9,0.9,1.7,0.8,2.9c-0.4,6-0.7,12.1,0,18.2c0.7,5.8,0.6,11.6-0.2,17.4c-0.5,3.3-0.5,6.8-0.6,10.1c-0.2,4.5-0.2,9.1-0.4,13.7
		c-0.1,2.7-0.5,5.5-0.5,8.2c0,5.4,0.2,10.8,0.2,16.1c0,4.3,0,8.7,0,13c0,3.8,0.1,7.6,0,11.4c-0.1,4.6-0.2,9.2-0.4,13.8
		c-0.1,4-0.1,7.9-0.3,11.9c-0.2,3.1-0.6,6.2-0.9,9.3c-0.1,1.2-0.1,2.5-0.1,3.7c-0.3,4.7-0.7,9.4-0.9,14.1c-0.3,5.5-0.7,11-0.8,16.5
		c-0.2,5.7-0.1,11.4-0.1,17.1c0,2.4,0.4,4.7,0.5,7.1c0.1,2.3,2.4,3.7,4,3.9c5.9,0.8,11.8,1.6,17.7,2.4c1.8,0.2,3.6,0.4,5.4,0.6
		c2.6,0.3,4.7,1,6.1,3.5c0.8,1.3,0.4,2.6,0.3,3.7c-0.2,3.3-0.7,6.6-1.1,9.9c-0.1,1.1-0.4,2.1-0.7,3.1
		C415.1,443.4,413.5,444.2,411.4,444.2z"/>
	<path class="st2" d="M523.2,260.6c-0.6-1.7-0.4-2.6,0.7-3.7c1.7-1.8,3-4,4.5-6c0.5-0.7,0.2-1.4-0.3-1.9c-0.6-0.7-1.3-0.6-1.9-0.1
		c-0.4,0.3-0.8,0.8-1.1,1.3c-0.8,1.1-1.5,2.2-2.3,3.2c-0.2,0-0.3-0.1-0.5-0.1c-0.1-0.7-0.2-1.4-0.4-2.3c2.2,0,2.3-2.1,3.5-3.1
		c1-0.9,1.8-2.2,2.5-3.4c0.3-0.4,0-1.2,0-1.7c-1.4-0.6-2.2-0.4-3,0.8c-0.9,1.3-2,2.5-3,3.7c-0.5-1.6-0.5-1.6,1.2-2.8
		c-0.7-1.4,0.3-2.4,1.1-3.3c0.8-0.9,1.8-1.6,2.8-2.5c-0.2-0.6,0.2-1.5-0.9-1.8c-0.9-0.2-1.7,0.2-2.2,1.2c-0.6,1.1-1.3,2.1-2.6,2.6
		c-0.7-1.4-0.3-2.8,0.1-4.1c0.3-1.1,1.6-1.3,2.6-1.5c1.7-0.5,3.5-1,5.3-1.3c3.7-0.7,7.4-1.5,11.2-1.3c1.5,0.1,3.1,0.4,4.6,0.7
		c1.8,0.5,2.4,1.5,2.2,3.3c-0.4,2.6-0.9,5.2-1.3,7.9c-0.9,5-1.7,10-2.7,14.9c-0.6,3-1.6,6-2.4,9c-1.3,4.7-2.5,9.3-3.8,14
		c-1,3.8-2,7.6-3.1,11.4c-0.5,1.7-1.4,3.3-2.2,4.9c-0.5,1.1-1.6,1.2-2.7,0.6c-0.9-0.6-1.2-1.7-0.5-2.7c0.7-1.1,1.4-2.3,2.3-3.3
		c0.8-1,0.8-1.8,0.2-2.9c-0.9-0.3-1.5-0.1-2.1,0.8c-0.4,0.7-1,1.3-1.5,2c-1-1.4-0.8-1.9-0.4-3c0.9-2.4,2.8-4.1,4-6.3
		c0.3-0.6,0.5-1,0-1.6c-0.5-0.6-1.2-0.6-1.8-0.2c-0.4,0.3-0.7,0.7-1,1.1c-0.7,0.9-1.3,1.7-2.1,2.8c-0.3-1-0.4-1.6,0.1-2.4
		c1.1-1.9,2.2-3.8,3.9-5.3c0.4-0.4,0.7-0.9,1-1.4c0.7-1.2,0.6-1.6-0.2-2.1c-0.8-0.5-1.8-0.4-2.4,0.4c-1,1.4-2,2.8-3.2,4.6
		c-0.1-1.1-0.2-1.8-0.3-2.7c1.4,0,1.9-0.7,2.1-2.1c0.2-1.6,1.5-2.5,2.6-3.5c0.4-0.4,0.8-0.7,1.1-1.1c0.4-0.7,0.1-1.7-0.4-2.1
		c-0.6-0.4-1.4-0.2-2,0.6c-1.1,1.4-2.1,2.7-3.4,4.4c-0.3-1-0.4-1.6-0.5-2.1c0.6-0.5,1.2-0.8,1.6-1.3c1.2-2,2.8-3.7,4.3-5.4
		c0.6-0.8,0.7-1.6,0.1-2c-0.8-0.6-1.5-0.6-2.2,0.2c-0.9,1-1.8,2.1-2.6,3.1c-0.4,0.5-0.8,0.9-1.3,1.5c-0.8-0.8-0.1-1.5-0.4-2.1
		c0.9-0.3,1.8-0.5,1.6-1.7c0-0.3,0.2-0.6,0.3-0.9c1.3-1.8,2.6-3.6,4-5.6c-0.3-0.5-0.6-1.2-1-1.9c-1.2,0.2-1.9,0.7-2.5,1.7
		C525.2,257.8,524.3,259,523.2,260.6z"/>
	<path class="st2" d="M302.9,437.4c-10.8-0.3-21.7-0.5-32.5-0.8c-2.5-0.1-5.6-3.2-4.8-4.8c0.7-1.5,1.7-2.9,2.4-4.4
		c3.4-6.8,10.4-10.5,22.4-10.1c4.2,0.2,8.5-0.3,12.5,0.1c10.1,1,19.9,0.5,29.8-1.1c2.4-0.4,5-0.1,7.5-0.1c2.2,0,5,1.5,5.3,2.8
		c0.8,4.1,1.5,8.1,2.2,12.2c0.3,1.8-2.3,4.1-5.2,5c-4.7,1.4-9.5,2.3-14.6,2.1c-8.3-0.3-16.7-0.7-25-1
		C303,437.2,302.9,437.3,302.9,437.4z"/>
	<path class="st2" d="M426.8,200.6c2.9-1.4,7.4-1.9,12-1.8c2.3,0.1,4.7-0.3,7-0.3c3.3,0,6.6,0.1,9.9,0.2c2.1,0,4.2,0.2,6.2,0.2
		c4,0,8.1,0,12.1-0.2c5-0.3,10-0.7,14.9-1.7c4.3-0.9,8.7-1,13-0.5c0.9,0.1,1.7,0.4,2.5,0.7c1.8,0.5,2.9,1.7,3.2,3.5
		c0.8,4.9,1.6,9.8,2.4,14.7c0.2,1.5-0.5,2.6-1.4,3.6c-1.7,1.8-3.9,2.7-6.1,3.3c-2.6,0.8-5.3,1.5-8,1.8c-3.2,0.4-6.4,0.6-9.6,0.5
		c-6.1-0.1-12.3-0.3-18.4-0.6c-2.1-0.1-4.3-0.2-6.4-0.3c-3.5-0.1-6.9,0.4-10.4,0.2c-4.8-0.3-9.6-0.2-14.5-0.3
		c-3.2,0-6.4-0.1-9.6-0.2c-2.4,0-4.8-0.1-7.3-0.1c-2.5,0-4.5-0.9-6-3c-1-1.4-1.2-2.6-0.4-4.1c1.2-2.2,2.3-4.5,3.6-6.6
		C417.9,205.6,421.3,202.8,426.8,200.6z"/>
	<path class="st2" d="M333.2,407.9c0.5-1.6,0.9-3.1,1.3-4.6c-1.4-0.8-2.1-0.1-2.7,0.7c-0.8,1-1.6,2.1-2.4,3.1
		c-0.5,0.6-1.1,1.4-2.4,0.8c0.5-0.6,0.8-1.1,1.3-1.8c-0.3-0.7-0.6-1.4-0.9-2.3c-1,0.6-2,1-2.6,1.7c-1.9,2.2-4.4,2.8-7.2,2.7
		c-1.6-0.1-3.1-0.2-5-0.4c1.3-1.4,2.5-2.5,3.5-3.6c-1.1-1.8-1.6-2.1-2.6-1.4c-2,1.6-4,3.3-6.1,5c-0.5-0.1-1.2-0.1-2-0.2
		c0-0.3,0-0.5,0.1-0.6c0.5-0.7,0.4-1.5-0.3-1.8c-0.6-0.3-1.5-0.3-2.2-0.1c-0.9,0.3-1.7,1.1-2.6,1.6c-2.3,1.2-2.9,1.2-5.4,0.4
		c0.3-1.1,0.5-2.1,0.8-3.1c-1.4-1.2-2.5-1.2-3.6-0.1c-0.4,0.4-1,0.5-1.4,0.9c-2.6,3.1-6,1.9-9.5,1.9c0.9-1.4,1.7-2.5,2.5-3.6
		c0.5-0.6,0.7-1.3,0.1-1.9c-0.7-0.7-1.5-0.5-2.2,0c-1.6,1.1-3.2,2.3-4.7,3.5c-2.2,1.9-2.2,1.9-4.8-0.2c0.4-0.3,0.8-0.7,1.2-1
		c1.1-0.7,2.3-1.4,3.4-2.1c1.1-0.7,2.2-1.5,3.3-2.2c1.7-1.1,1.8-1.6,1.1-3.7c-1.3-0.6-2.3,0.2-3.3,0.8c-1.9,1.1-3.8,2.3-5.7,3.4
		c-0.4,0.3-1,0.3-1.6,0.3c1.2-1.1,1.2-2.9,2.9-3.7c1.6-0.7,2.9-1.8,4.3-2.8c0.7-0.5,1.2-1.1,1.8-1.7c-1.3-2.5-1.4-2.4-3.5-1.3
		c-1.9,1-3.4,2.9-5.9,3c0-0.9,0-1.7,0-2.7c1.7-0.1,2.8-0.7,2.9-2.6c0-0.7,1.1-1.4,1.9-1.9c0.8-0.6,1.9-0.8,2.7-1.4
		c0.6-0.4,1.2-0.9,1.5-1.4c0.2-0.4,0.3-1.2,0.1-1.5c-0.3-0.4-1-0.7-1.6-0.7c-0.5,0-1,0.3-1.5,0.6c-1.8,1.1-3.6,2.2-5.5,3.4
		c-0.1-0.6-0.2-1.1-0.3-1.7c1.2-0.2,2.2-0.4,2.5-1.7c0.1-0.4,0.7-0.6,1-0.9c1.5-1.3,2.9-2.6,4.4-3.9c0.7-0.7,1.3-1.4,0.5-2.4
		c-0.6-0.6-2-0.7-2.8,0c-0.9,0.7-1.8,1.5-2.7,2.2c-0.6,0.5-1.2,0.9-1.9,1.3c-0.9-2.1-0.5-2.3,0.6-3.7c1.5-1.9,4-2.4,5.6-4.2
		c0.2-0.3,0.7-0.3,1-0.5c1.9-0.7,2.1-1.2,1.6-3.6c-3.4,0.1-6.1,2-9,3.9c-0.7-2.9,1-4.4,2.8-5.7c1.7-1.3,3.5-2.5,5.2-3.7
		c0.6-0.5,1.6-1,0.8-2c-0.6-0.8-1.9-1-2.8-0.4c-0.8,0.5-1.4,1.2-2.2,1.8c-1,0.7-2.1,1.3-3.5,2.1c0-1.4-0.1-2.4,0-3.4
		c0-0.4,0.4-0.8,0.7-1.1c0.2-0.2,0.6-0.4,0.6-0.6c0.4-3.1,3.1-3.6,5.3-4.7c0.5-0.2,1.1-0.4,1.5-0.7c1.1-0.9,1-1.9-0.4-2.5
		c-0.6-0.3-1.4-0.4-1.8-0.5c-1.8,0.9-3.5,1.8-5.2,2.6c-1.1-4.3,1.2-6.7,4.5-8.6c1.4-0.7,2.8-1.5,3.9-2.5c0.6-0.5,0.7-1.5,1.1-2.2
		c-0.8-0.8-1.4-1.2-2.5-0.6c-2,1.1-4.2,2.2-6.5,3.3c-0.1-1.1-0.2-2-0.2-2.9c0-0.4,0.5-1.2,0.8-1.2c1.1,0,1.3-0.7,1.8-1.4
		c1-1.2,2.3-2.3,3.7-2.8c1.7-0.6,2.3-2,3.5-3c-1.1-2.1-1.7-2.2-3.4-1c-1.8,1.3-3.6,2.5-5.9,3.1c0-1.9-0.1-3.6,0-5.4
		c0-0.4,0.4-0.8,0.8-1c2.4-1.6,4.9-3.1,7.3-4.6c0.2-0.1,0.6-0.2,0.6-0.3c0.3-0.8,0.8-1.6,0.7-2.3c-0.3-0.9-1.3-1-2.2-0.6
		c-1,0.4-2,0.8-3,1.3c-1.1,0.5-2.1,1-3.4,1.5c0-1.3,0-2.4,0-3.2c1.1-0.9,2-1.6,2.7-2.4c1.3-1.4,2.9-2.5,4.7-2.9
		c1.1-0.3,1.9-0.6,2-1.6c0.1-0.5-0.3-1.2-0.7-1.5c-0.7-0.5-1.5-0.8-2.6-0.1c-1.7,1.1-3.7,1.7-5.7,2.6c0-1.5,0-2.8-0.1-4.1
		c0-0.3-0.1-0.7,0.1-0.9c1.2-1,1.7-2.3,2.2-3.7c0.1-0.3,0.8-0.6,1.2-0.6c2.3-0.1,3.8-1.8,5.8-2.6c0.5-0.2,0.8-1.3,0.7-2
		c-0.1-0.4-1-0.8-1.7-0.9c-0.5-0.1-1.1,0.2-1.6,0.4c-1.5,0.8-2.9,1.6-4.4,2.4c-0.5,0.2-1,0.4-1.7,0.6c0-1.9-0.1-3.7-0.1-5.4
		c1.9-0.8,1.9-0.8,2.2-3.2c1.7-1,3.4-1.9,5.1-2.9c1.1-0.6,1.5-1.9,0.9-2.7c-0.5-0.8-1.7-0.9-2.8-0.2c-1.6,1-3.2,2-4.8,3
		c-1.1-5.2,0.9-8,5.3-10.3c0.6-0.3,1.2-0.5,1.8-0.7c1-0.3,1.3-1,1-2.1c-3-1.6-5,1.3-7.8,2c-0.1-1.1-0.3-2.1-0.2-3
		c0.1-1,0.4-1.9,1.6-2.4c1.6-0.7,3.1-1.6,4.5-2.5c0.6-0.4,1.3-1,1.6-1.6c0.2-0.4-0.1-1.4-0.4-1.6c-0.5-0.2-1.7-0.2-1.9,0.1
		c-1.2,1.9-3.4,2.1-5.2,3.8c0-2.1-0.1-3.8-0.1-5.5c0.5-0.2,1.1-0.2,1.4-0.6c1.4-1.5,3-2.2,5-2.4c0.1,0,0.2,0,0.2,0
		c1.1-0.3,1.9-1.4,1.6-2.5c-0.2-0.9-1.4-1.4-2.6-0.9c-1.5,0.7-3,1.5-4.4,2.3c-0.3,0.1-0.5,0.2-0.8,0.3c-1.3-2.7,0.5-4.5,1.5-6.4
		c0.6-1.2,1.7-2.1,3.2-2.4c1.3-0.3,1.6-1.2,1.3-2.3c-0.3-1-1.3-1.6-2.5-1.1c-1.1,0.5-2.2,1.2-3.2,1.9c-1.2-1.8-0.9-3.7,0.7-4.9
		c1.9-1.3,3.8-2.7,5.7-4c1-0.7,1.4-1.9,0.9-2.6c-0.5-0.7-1.7-0.8-2.8-0.1c-1.6,1-3.1,2.1-4.8,3.2c-1.2-1.7,0.3-3.2-0.5-4.6
		c2.3-1.7,4.5-3.2,6.7-4.8c0.6-0.4,1.3-0.8,1.7-1.3c0.3-0.5,0.3-1.2,0.4-1.9c-0.6-0.1-1.3-0.4-1.7-0.2c-1.8,0.8-3.5,1.9-5.2,2.8
		c-0.5,0.3-1,0.6-1.7,1c0-1.2,0-2,0-2.8c0.5-0.4,1-0.6,1.2-1c1.2-2.3,3.5-3.2,5.7-4.2c1.1-0.5,1.6-1.4,1.2-2.2
		c-0.4-0.8-1.9-1.1-2.9-0.6c-1.6,0.9-3.2,1.7-4.8,2.6c-0.7-3.1,0.2-5.2,3-6.4c0.6-0.3,1.2-0.8,1.8-1.2c0.9-0.6,1.7-1.2,2.9-2
		c0-0.6,0.1-1.5,0.2-2.6c-3.3-0.2-5.3,2.2-7.8,3.3c-0.5-1.7-0.1-3.2,0.4-4.2c1.6-0.9,2.9-1.8,4.2-2.5c1.2-0.7,2.5-1.2,3.8-1.8
		c0.1,0,0.2,0,0.2-0.1c1.1-0.4,2-1.7,1.6-2.5c-0.3-0.7-1.3-0.9-2.6-0.3c-2.2,1.1-4.4,2.2-6.6,3.3c-0.4,0.2-0.8,0.3-1.4,0.6
		c0-1.1,0.1-2,0.1-3c1-0.5,1.9-0.9,2.7-2c0.9-1.3,2.8-1.8,4.3-2.6c0.6-0.3,1.5-0.3,2-0.8c0.5-0.5,0.6-1.3,0.9-2
		c-0.6-0.2-1.3-0.7-1.9-0.5c-1.7,0.5-3.4,1.2-5.1,1.8c-0.7,0.3-1.4,0.6-2.4,1.1c0-1.5,0-2.7-0.1-3.6c0.9-0.7,1.6-1.3,2.3-1.8
		c1.6-1.2,3.1-2.4,4.8-3.4c1.5-1,1.7-1.2,0.9-3.4c-3,0.3-5.1,2.5-8.3,3.5c0.3-0.9,0.3-1.6,0.7-2.1c0.9-1.2,1.6-2.7,3.3-3.3
		c1.3-0.4,2.5-1,3.8-1.4c1.7-0.6,1.8-0.7,1.4-2.9c-3.2-0.7-5.7,1.5-8.9,2.2c-0.1-1.1-0.2-2.2-0.3-3.1c2.4-1.2,4.6-2.3,6.8-3.4
		c0.4-0.2,0.8-0.5,1.2-0.8c0.7-0.6,1.2-1.2,0.7-2.2c-0.6-0.9-1.4-0.9-2.3-0.7c-0.4,0.1-0.8,0.4-1.2,0.6c-1.5,0.7-2.9,1.4-4.7,2.3
		c-0.2-1.3-0.4-2.2-0.5-3.1c2.6-2.8,6-3.8,9.6-4.4c0.3-0.6,0.5-1.3,0.9-2.2c-3.6-1.3-6.7,0.6-9.8,1.5c-0.6-2.2,0-3.6,2.2-4.7
		c1.5-0.8,3.2-1.2,4.9-1.7c0.7-0.2,1.5-0.4,2.3-0.6c0.1-0.5,0.3-1,0.2-1.5c0-1.5-0.7-2-2.1-1.4c-2,0.7-3.9,1.6-5.8,2.4
		c-0.3,0.1-0.6,0.1-1,0.2c-0.1-1.4,0.8-2.1,1.8-2.5c1.6-0.7,3.2-1.3,4.9-1.7c3.5-0.7,7-1.2,10.5-1.9c3.3-0.7,6.6-0.4,9.9,0
		c1.2,0.2,2.3,0.7,2.9,1.8c0.5,1,1,1.8,0.9,3.1c-0.5,6.5-0.7,13,0,19.5c0.7,6.2,0.7,12.4-0.2,18.7c-0.5,3.6-0.5,7.2-0.7,10.9
		c-0.2,4.9-0.2,9.8-0.4,14.6c-0.1,2.9-0.5,5.9-0.5,8.8c0,5.8,0.2,11.5,0.2,17.3c0,4.6,0,9.3,0,13.9c0,4.1,0.1,8.2,0,12.2
		c-0.1,4.9-0.3,9.9-0.4,14.8c-0.1,4.3-0.1,8.5-0.4,12.8c-0.2,3.3-0.7,6.6-1,9.9c-0.1,1.3-0.1,2.6-0.1,3.9c-0.3,5-0.7,10-1,15.1
		c-0.3,5.9-0.7,11.7-0.9,17.6c-0.2,6.1-0.1,12.2-0.1,18.3c0,2.5,0.4,5.1,0.5,7.6c0.1,2.5,2.6,3.9,4.4,4.1c6.5,0.8,13,1.7,19.5,2.5
		c2,0.2,3.9,0.4,5.9,0.6c2.8,0.3,5.1,1.1,6.7,3.7c0.9,1.4,0.4,2.7,0.3,4c-0.2,3.5-0.8,7-1.2,10.6c-0.2,1.1-0.4,2.3-0.8,3.3
		C337.3,407.1,335.5,407.9,333.2,407.9z"/>
</g>
</svg>
