<?xml version="1.0" encoding="utf-8"?>
<!-- Generator: Adobe Illustrator 20.1.0, SVG Export Plug-In . SVG Version: 6.00 Build 0)  -->
<svg version="1.1" id="Layer_1" xmlns="http://www.w3.org/2000/svg" xmlns:xlink="http://www.w3.org/1999/xlink" x="0px" y="0px"
	 viewBox="0 0 720 72" style="enable-background:new 0 0 720 72;" xml:space="preserve">
<style type="text/css">
	.st0{fill:#FFFFFF;}
</style>
<g id="MB_and_P">
	<g id="Mojito_Bar">
		<path class="st0" d="M18.6,51.6c4.7-0.2,4.9-5,5.1-7.4V23.5c0-2.9-0.9-3.7-3.7-3.7h-1.3v-1.6h14.6l5.9,21.2l6-21.2h14.8v1.6h-1.4
			c-2.8,0-3.7,0.9-3.7,3.7v24.4c0,3.1,0.6,3.7,3.2,3.7h1.9v1.6H41.9v-1.6h2.1c2.5,0,3-0.6,3-3.7V20.6c0-0.6-0.2-0.9-0.4-0.9
			c-0.3,0-0.5,0.4-0.7,1L37,53.1h-1.7l-9-32.4c-0.2-0.6-0.4-0.9-0.6-0.9c-0.3,0-0.5,0.5-0.5,1.1v23.5c0,4.4,1.9,7.2,4.9,7.2h0.5v1.6
			h-12V51.6z"/>
		<path class="st0" d="M93.3,36c0,11.3-5.7,18.2-15.2,18.2c-9.4,0-15.2-6.9-15.2-18.2c0-12.5,7-18.9,15.2-18.6
			C87.9,17.7,93.3,24.4,93.3,36z M72.5,38.2c0,8.5,0.6,14.5,5.4,14.5c4.4,0,5.8-3.5,5.8-14.5v-5.3c0-10.6-1.2-13.8-5.5-13.8
			c-4.3,0-5.7,3.5-5.7,13.5V38.2z"/>
		<path class="st0" d="M116,43.4c0,6.6-4,10.9-10.3,10.9c-5.3,0-9.1-3.6-9.1-8.7c0-2.9,2-5.2,4.6-5.2c2.3,0,4,1.6,4,3.8
			c0,1.8-0.8,2.9-2.8,3.9c-1.2,0.7-1.7,1.1-1.7,1.8c0,1.2,2,2.6,3.9,2.6c2.2,0,3.3-1.6,3.3-4.7c0-0.5-0.1-3-0.1-3.5
			c0.1-3.9,0.1-7.8,0.1-11.7c0-9.7,0-10.3-0.4-11.4c-0.5-1.3-2-1.5-3.4-1.5h-1.3v-1.6h17.9v1.6h-1c-2.8,0-3.7,0.9-3.7,3.7V43.4z"/>
		<path class="st0" d="M122.3,51.6h1.7c2.6,0,3.2-0.7,3.2-3.7V23.5c0-2.9-0.9-3.7-3.7-3.7h-1.2v-1.6h18.1v1.6h-1.3
			c-2.8,0-3.7,0.9-3.7,3.7v24.4c0,3.3,0.3,3.7,2.8,3.7h2.2v1.6h-18.1V51.6z"/>
		<path class="st0" d="M171.4,18.2v13.3h-1.6c-0.8-4.6-2-11.7-7-11.7c-1.3,0-1.7,0.5-1.8,2.1v26c0,3.3,0.3,3.7,2.9,3.7h3.1v1.6h-20
			v-1.6h2.7c2.6,0,3.2-0.7,3.2-3.7V21.8c0-1.5-0.5-2-2-2c-5.2,0-6.3,8-6.8,11.7h-1.6V18.2H171.4z"/>
		<path class="st0" d="M205.2,36c0,11.3-5.7,18.2-15.2,18.2c-9.4,0-15.2-6.9-15.2-18.2c0-12.5,7-18.9,15.2-18.6
			C199.7,17.7,205.2,24.4,205.2,36z M184.4,38.2c0,8.5,0.6,14.5,5.4,14.5c4.4,0,5.8-3.5,5.8-14.5v-5.3c0-10.6-1.2-13.8-5.5-13.8
			c-4.3,0-5.7,3.5-5.7,13.5V38.2z"/>
		<path class="st0" d="M219.4,51.6h2.3c2.6,0,3.2-0.7,3.2-3.7V23.5c0-2.9-0.9-3.7-3.7-3.7h-1.7v-1.6h18.9c6.7,0,11.4,3.6,11.4,8.7
			c0,5.8-6.4,8-9.7,8c5.6,0,11.2,2.8,11.2,9.1c0,5.6-5,9.1-12.8,9.1h-19.1V51.6z M233.1,34.1h3.6c2.7,0,4.1-2.3,4.1-7.1
			c0-7.3-3-7.3-4.6-7.3c-2.5,0-3.1,0.5-3.1,3V34.1z M233.1,35.7v13.2c0,2.1,0.7,2.7,3,2.7c2.8,0,5.9-0.2,5.9-8.1
			c0-5.2-1.6-7.8-4.7-7.8H233.1z"/>
		<path class="st0" d="M267.7,17.8h3.6l10.2,30c0.8,2.5,2.2,3.7,4.1,3.7h0.8v1.6H270v-1.6h1.2c1.8,0,2.6-0.5,2.6-1.3
			c0-0.4-0.1-0.7-0.2-1.1l-2-6.1h-11.2c-0.9,2.2-1.1,3.2-1.1,4.3c0,2.7,1.8,4.1,5.4,4.3v1.6h-13.5v-1.6c1.5-0.2,4.6-0.6,6.7-6.3
			L267.7,17.8z M266.2,26.8l-4.9,13.7h9.5L266.2,26.8z"/>
		<path class="st0" d="M288.5,51.6h1.8c2.6,0,3.2-0.7,3.2-3.7V23.5c0-2.9-0.9-3.7-3.7-3.7h-1.3v-1.6H307c7.6,0,12.3,3.3,12.3,8.7
			c0,3.2-1.9,6-5.2,7.5c-2.3,1-5.2,1.3-7.6,1.6c7.3,1.5,10.9,5.1,11.3,11.2c0.2,2.7,0.7,3.8,1.9,3.8c1.2,0,2.2-1.8,2.2-4v-5.1h1.6
			V47c0,4-2.7,6.6-6.8,6.6c-4.2,0-6.7-2.5-7.1-7.2l-0.1-1.1c-0.5-6.1-2.3-8.9-5.8-8.9h-2v11.5c0,3.3,0.3,3.7,2.8,3.7h2.4v1.6h-18.5
			V51.6z M301.8,34.8h1.9c4.1,0,6.8-0.2,6.8-7.6c0-3.3-0.5-5.2-1.7-6.4c-0.6-0.7-1.3-0.9-2.8-1h-2.1c-1.2,0-2.1,0.9-2.1,2.1V34.8z"
			/>
	</g>
	<path id="Slash" class="st0" d="M336.9,47.1c0.8-2.2,2.8-4.8,5.2-7.1c1.2-1.2,2.2-2.5,3.4-3.7c1.7-1.7,3.4-3.3,5.2-5
		c1.1-1,2.2-2,3.3-3.1c2.1-2.1,4.1-4.1,6.1-6.3c2.4-2.7,4.7-5.5,6.7-8.5c1.8-2.6,3.9-4.9,6.4-6.9c0.5-0.4,1.1-0.6,1.6-0.9
		c1.2-0.7,2.4-0.6,3.4,0.2c2.9,2.1,5.8,4.2,8.7,6.3c0.9,0.6,1.1,1.6,1.1,2.6c0.1,1.8-0.6,3.3-1.4,4.8c-1,1.7-2,3.5-3.2,5
		c-1.4,1.8-3,3.6-4.6,5.2c-3.2,3.1-6.5,6.1-9.7,9.1c-1.1,1.1-2.3,2.1-3.4,3.1c-1.8,1.7-3.3,3.7-5.2,5.4c-2.6,2.3-5,4.8-7.5,7.3
		c-1.7,1.6-3.3,3.2-5,4.8c-1.3,1.2-2.5,2.4-3.8,3.6c-1.3,1.3-2.7,1.8-4.6,1.6c-1.2-0.2-2-0.7-2.3-1.9c-0.5-1.7-1.1-3.5-1.6-5.2
		C335,54.2,335.3,51.1,336.9,47.1z"/>
	<g id="Panciteria">
		<path class="st0" d="M415.1,37.4c0.1,3,0,7.8,0,10.7c0,3,0.4,3.5,2.8,3.5h2.5v1.6h-18.6v-1.6h1.8c2.6,0,3.2-0.6,3.2-3.7V23.5
			c0-2.9-0.8-3.8-3.6-3.8h-1.4v-1.6h17.2c7.6,0,12.4,3.6,12.4,9.3c0,2.6-0.9,4.9-2.7,6.6c-2.4,2.3-6.1,3.3-12.1,3.3H415.1z
			 M415,35.8h1c3.2,0,6.5,0,6.5-7.5c0-3.9-0.5-6.4-1.7-7.5c-0.8-0.8-1.7-1.1-3.6-1.1c-1.8,0-2.2,0.4-2.2,1.9V35.8z"/>
		<path class="st0" d="M442.5,17.8h3.6l10.2,30c0.8,2.5,2.2,3.7,4.1,3.7h0.8v1.6h-16.4v-1.6h1.2c1.8,0,2.6-0.5,2.6-1.3
			c0-0.4-0.1-0.7-0.2-1.1l-2-6.1h-11.2c-0.9,2.2-1.1,3.2-1.1,4.3c0,2.7,1.8,4.1,5.4,4.3v1.6h-13.5v-1.6c1.5-0.2,4.6-0.6,6.7-6.3
			L442.5,17.8z M441,26.8l-4.9,13.7h9.5L441,26.8z"/>
		<path class="st0" d="M463.1,51.6c4.6-0.8,5.2-4.4,5.3-8.3V27.5c0-7.7-3.4-7.7-5.3-7.7v-1.6h10.7l15.3,25.3L489,29.3
			c-0.1-7.6-2.8-9-6.1-9.5v-1.6h13v1.6c-3.9,0.7-5.4,2.9-5.4,7.9l0.3,26.1h-4l-16.8-27.8l0.2,16.8c0.1,4.1,1.5,7,4.1,8.3
			c0.7,0.4,1.2,0.5,2.5,0.6v1.6h-13.6V51.6z"/>
		<path class="st0" d="M524.1,40.4c-0.3,8.2-5.1,13.8-11.9,13.8c-7.8,0-13-6.8-13-17.1c0-6,1.1-10.6,3.4-13.9c1.6-2.4,4.8-6,9.7-6
			c2.9,0,4.8,0.9,7.1,3.5c1-1,1.8-1.9,2.7-3.4h1.6v15.7h-1.5c-0.8-4.8-1.1-6.2-2.4-8.8c-1.1-2.3-3.6-5.2-6.3-5.2
			c-0.9,0-1.9,0.5-2.6,1.1c-1.4,1.5-2,5-2,11.5v9c0,5.8,0.6,8.7,2.1,10.2c0.9,0.9,2,1.4,3.2,1.4c4.4,0,8.1-5.3,8.4-11.9H524.1z"/>
		<path class="st0" d="M526.5,51.6h1.7c2.6,0,3.2-0.7,3.2-3.7V23.5c0-2.9-0.9-3.7-3.7-3.7h-1.2v-1.6h18.1v1.6h-1.3
			c-2.8,0-3.7,0.9-3.7,3.7v24.4c0,3.3,0.3,3.7,2.8,3.7h2.2v1.6h-18.1V51.6z"/>
		<path class="st0" d="M575.6,18.2v13.3h-1.6c-0.8-4.6-2-11.7-7-11.7c-1.3,0-1.7,0.5-1.8,2.1v26c0,3.3,0.3,3.7,2.9,3.7h3.1v1.6h-20
			v-1.6h2.7c2.6,0,3.2-0.7,3.2-3.7V21.8c0-1.5-0.5-2-2-2c-5.2,0-6.3,8-6.8,11.7h-1.6V18.2H575.6z"/>
		<path class="st0" d="M578.1,53.1v-1.6h2.6c2.6,0,3.2-0.7,3.2-3.7V23.5c0-2.9-0.9-3.7-3.7-3.7h-2.1l-0.1-1.6h30.8v12.9h-1.6
			c-0.8-3.6-2.1-6.2-3.9-8.1c-2.2-2.3-4.4-3.2-7.8-3.2c-2.8,0-3.5,0.5-3.5,2.7v12.1h0.9c0.9,0,2.5-0.6,3.5-1.3
			c2.6-1.9,2.9-4.8,3-6.6h1.6v17.8h-1.6c0-3.3-1.7-8.3-7.4-8.3v12.9c0,1.7,0.7,2.4,2.4,2.4h2.9c2.7,0,8.8-2.6,10.6-11.5h1.6v13
			H578.1z"/>
		<path class="st0" d="M612.6,51.6h1.8c2.6,0,3.2-0.7,3.2-3.7V23.5c0-2.9-0.9-3.7-3.7-3.7h-1.3v-1.6H631c7.6,0,12.3,3.3,12.3,8.7
			c0,3.2-1.9,6-5.2,7.5c-2.3,1-5.2,1.3-7.6,1.6c7.3,1.5,10.9,5.1,11.3,11.2c0.2,2.7,0.7,3.8,1.9,3.8c1.2,0,2.2-1.8,2.2-4v-5.1h1.6
			V47c0,4-2.7,6.6-6.8,6.6c-4.2,0-6.7-2.5-7.1-7.2l-0.1-1.1c-0.5-6.1-2.3-8.9-5.8-8.9h-2v11.5c0,3.3,0.3,3.7,2.8,3.7h2.4v1.6h-18.5
			V51.6z M625.8,34.8h1.9c4.1,0,6.8-0.2,6.8-7.6c0-3.3-0.5-5.2-1.7-6.4c-0.6-0.7-1.3-0.9-2.8-1h-2.1c-1.2,0-2.1,0.9-2.1,2.1V34.8z"
			/>
		<path class="st0" d="M649.7,51.6h1.7c2.6,0,3.2-0.7,3.2-3.7V23.5c0-2.9-0.9-3.7-3.7-3.7h-1.2v-1.6h18.1v1.6h-1.3
			c-2.8,0-3.7,0.9-3.7,3.7v24.4c0,3.3,0.3,3.7,2.8,3.7h2.2v1.6h-18.1V51.6z"/>
		<path class="st0" d="M686.2,17.8h3.6l10.2,30c0.8,2.5,2.2,3.7,4.1,3.7h0.8v1.6h-16.4v-1.6h1.2c1.8,0,2.6-0.5,2.6-1.3
			c0-0.4-0.1-0.7-0.2-1.1l-2-6.1H679c-0.9,2.2-1.1,3.2-1.1,4.3c0,2.7,1.8,4.1,5.4,4.3v1.6h-13.5v-1.6c1.5-0.2,4.6-0.6,6.7-6.3
			L686.2,17.8z M684.8,26.8l-4.9,13.7h9.5L684.8,26.8z"/>
	</g>
</g>
</svg>
